<?xml version="1.0" encoding="utf-8"?>
<!-- Generator: Adobe Illustrator 22.0.1, SVG Export Plug-In . SVG Version: 6.00 Build 0)  -->
<svg version="1.1" id="Layer_1" xmlns="http://www.w3.org/2000/svg"  x="0px" y="0px"
	 viewBox="0 0 420.1 301.4" style="enable-background:new 0 0 420.1 301.4;" xml:space="preserve">
<style type="text/css">
	.st0{fill:#004B85;}
	.st1{fill:#FFD520;}
	.st2{fill:#00ADA8;}
</style>
<g>
	<g>
		<path class="st0" d="M186.7,289.7c-0.7-1.2-2.1-1.9-3.6-1.9c-2.7,0-4.8,2.1-5.3,4.7c-0.4,2.7,1.1,4.6,3.9,4.6c1.4,0,3-0.7,4.1-1.8
			l-0.8,5.3c-1.5,0.4-2.6,0.8-4,0.8c-2.4,0-4.5-0.9-6-2.5c-1.6-1.7-2.1-3.9-1.7-6.4c0.4-2.3,1.6-4.5,3.5-6.2
			c1.9-1.7,4.5-2.7,6.9-2.7c1.4,0,2.7,0.3,3.9,0.9L186.7,289.7z"/>
		<path class="st0" d="M217.1,290.5l1-6.5h4.4l-2.7,17h-4.4l1.1-6.9h-6.4l-1.1,6.9h-4.4l2.7-17h4.4l-1,6.5H217.1z"/>
		<path class="st0" d="M246.3,287.7l-0.4,2.8h5l-0.6,3.7h-5l-0.5,2.9h5.2l-0.6,3.7h-9.6l2.7-17h9.6l-0.6,3.7H246.3z"/>
		<path class="st0" d="M273.8,284h4.3l2,9.1l5.1-9.1h4.4l-0.1,17H285l0.3-9.8h0l-5.6,9.8h-1.8l-2.3-9.8h0l-3,9.8h-4.4L273.8,284z"/>
		<path class="st0" d="M312.8,300.9h-4.4l2.7-17h4.4L312.8,300.9z"/>
		<path class="st0" d="M346.6,289.7c-0.7-1.2-2.1-1.9-3.6-1.9c-2.7,0-4.8,2.1-5.3,4.7c-0.4,2.7,1.1,4.6,3.9,4.6c1.4,0,3-0.7,4.1-1.8
			l-0.8,5.3c-1.5,0.4-2.6,0.8-4,0.8c-2.4,0-4.5-0.9-6-2.5c-1.6-1.7-2.1-3.9-1.7-6.4c0.4-2.3,1.6-4.5,3.5-6.2
			c1.9-1.7,4.5-2.7,6.9-2.7c1.4,0,2.7,0.3,3.9,0.9L346.6,289.7z"/>
		<path class="st0" d="M369.4,298l-1.6,2.9h-4.7l9.2-17h4.8l3.7,17h-4.7l-0.6-2.9H369.4z M373.9,289.2L373.9,289.2l-2.7,5.4h3.7
			L373.9,289.2z"/>
		<path class="st0" d="M404.2,297.2h5.3l-0.6,3.7h-9.7l2.7-17h4.4L404.2,297.2z"/>
	</g>
	<g>
		<path class="st0" d="M121.8,271.8h-20.3l1-6.4h-0.2c-4.5,5.7-11.9,8.3-18.6,8.3c-17,0-26.7-14.2-24.1-30.6
			c2.6-16.4,16.6-30.5,33.5-30.5c6.6,0,13.1,2.5,16.6,7.5l0.9-5.6h20.3L121.8,271.8z M80.5,243.2c-1.2,7.3,2.8,12.8,11,12.8
			c8.3,0,14-5.6,15.1-12.8c1.1-7-2.8-13-11-13C87.3,230.2,81.6,236.2,80.5,243.2z"/>
		<path class="st0" d="M346.1,271.8h-20.3l1-6.4h-0.2c-4.5,5.7-11.9,8.3-18.6,8.3c-17,0-26.7-14.2-24.1-30.6
			c2.6-16.4,16.6-30.5,33.5-30.5c6.6,0,13.1,2.5,16.6,7.5l0.9-5.6h20.3L346.1,271.8z M304.8,243.2c-1.2,7.3,2.8,12.8,11,12.8
			c8.3,0,14-5.6,15.1-12.8c1.1-7-2.8-13-11-13C311.7,230.2,305.9,236.2,304.8,243.2z"/>
		<path class="st0" d="M381.7,221.9h0.2c5.8-6.9,11.9-9.3,19.8-9.3c15.4,0,20,9.7,17.8,23.8l-5.6,35.4h-20.3l4.4-27.9
			c0.9-5.5,3.3-15.1-6.8-15.1c-8.3,0-11.6,6.1-12.7,13.3l-4.7,29.7h-20.3l9.1-57.3h20.3L381.7,221.9z"/>
		<path class="st0" d="M264.1,212.6c-7.8,0-16.1,3.8-21.2,11c-2.9-7.6-9.5-11-17.8-11c-7.4,0-13.7,2.7-19.5,9.1h-0.2l1.1-7.1
			l0.1-0.1h-20.2l0,0h-0.2l0,0.2l-32.3,32.6l5.3-32.8h-20.2l-9.2,57.2l-29.2,29.5h22.2l59.2-59.9l-4.8,30.5h20.3l4.3-27.4
			c1-6.4,2.5-16.1,11.6-16.1c9,0,7.5,9.7,6.5,16.1l-4.3,27.4h20.3l4.3-27.4c1.1-6.8,2.8-15.6,12.2-15.6c8.6,0,6.8,9.7,5.9,15.6
			l-4.3,27.4h20.3l5.8-36.5C282.2,222.1,278.6,212.6,264.1,212.6z"/>
		<path class="st0" d="M53.5,250.8c-4.2,2.2-8.4,3.3-12.8,3.3c-5.3,0-10.1-2.1-13.3-5.8c-3.1-3.6-4.4-8.4-3.6-13.3
			c1.6-10.2,11-18.2,21.3-18.2c4.5,0,8.9,1.5,13,4.5l3.3-20.7l0.1-1c-4.9-1.5-10.3-2.3-15.6-2.3c-22,0-42,17.3-45.5,39.5
			c-1.6,10.2,0.7,19.6,6.6,26.5c5.8,6.8,14.5,10.5,24.6,10.5c5.5,0,13.8-0.9,18.5-2.4L53.5,250.8z"/>
	</g>
	<path class="st1" d="M253.6,0c-6.9,16.8-2.3,48.9,1.8,75c-11-0.7-20.6-1.6-27.4-1.6C227.3,23.5,253.6,0,253.6,0z"/>
	<path class="st2" d="M170.4,113.4c-7.7,10.3-12.2,31.9-1,45.9c-4.5-0.8-14.3-3.6-18.2-6.1C149.6,137.6,156.4,119.4,170.4,113.4z"/>
	<path class="st0" d="M332,75.4C317.5,84.5,284,81,253.9,79c-29-1.9-56.3-5.2-77.5,18c-5,5.5-18.6,20.6-18.2,20.2
		c19.3-21.1,63.4-9.8,99.2-10.4C305.8,106.1,332,75.4,332,75.4z"/>
	<path class="st1" d="M235.6,154.1c7.5-15.7,0.8-39.2-4-44.5c8.2,0.6,18,1.1,28.2,0.9C259,127.3,257.6,145.1,235.6,154.1z"/>
	<path class="st0" d="M151.7,158.3c1.2,7.2,3.3,14.9,4.7,21.2l6.2,0.7l-0.9,5.8c34.5,1.9,55-0.1,70.6-17.1
		c15.9-17.4,16.2-18.3,16.2-18.3C230.1,170.6,178.6,169.1,151.7,158.3z"/>
	<polygon class="st0" points="181.1,147.5 172.3,150.3 166.9,142.8 172.3,135.4 181.1,138.2 	"/>
</g>
</svg>
