<?xml version="1.0" encoding="utf-8"?>
<!-- Generator: Adobe Illustrator 25.2.0, SVG Export Plug-In . SVG Version: 6.00 Build 0)  -->
<svg version="1.1" id="Layer_1" xmlns="http://www.w3.org/2000/svg" xmlns:xlink="http://www.w3.org/1999/xlink" x="0px" y="0px"
	 viewBox="0 0 577.9 236.6" style="enable-background:new 0 0 577.9 236.6;" xml:space="preserve">
<style type="text/css">
	.st0{fill:#00AEEF;}
	.st1{fill:#004990;}
</style>
<g>
	<g>
		<g>
			<path class="st0" d="M214.7,175.4c-1.3-0.8-2.3-1.8-3.1-3.1c-0.8-1.3-1-2.5-1-4.3s0.3-3.1,1-4.3c0.8-1.3,1.8-2.3,3.1-3.1
				c1.3-0.8,2.8-1,4.4-1c1.3,0,2.3,0.3,3.6,0.8c1,0.5,2.1,1,2.6,1.8l-1.5,1.5c-1.3-1.3-2.8-2-4.6-2c-1.3,0-2.3,0.3-3.3,0.8
				s-1.8,1.3-2.3,2.3c-0.5,1-0.8,2-0.8,3.1c0,1.3,0.3,2.3,0.8,3.1c0.5,1,1.3,1.8,2.3,2.3c1,0.5,2.1,0.8,3.3,0.8c1.8,0,3.3-0.8,4.6-2
				l1.5,1.5c-0.8,0.8-1.5,1.5-2.6,1.8c-1,0.5-2.3,0.8-3.6,0.8C217.5,176.4,215.9,176.2,214.7,175.4z"/>
			<path class="st0" d="M238.6,165.2c1,0.8,1.3,2.3,1.3,4.1v7.1h-2.3v-6.9c0-1.3-0.3-2-0.8-2.5c-0.5-0.5-1.3-0.8-2.6-0.8
				c-1.3,0-2.1,0.3-2.8,1c-0.8,0.8-1,1.8-1,3.1v6.4H228v-17.1h2.6v6.6c0.5-0.5,1-1,1.8-1.3c0.8-0.3,1.5-0.5,2.6-0.5
				C236.5,164,237.6,164.5,238.6,165.2z"/>
			<path class="st0" d="M255.3,170.8h-10c0.3,1,0.5,2,1.5,2.5c0.8,0.8,1.8,1,3.1,1c1.5,0,2.6-0.5,3.6-1.5l1.3,1.5
				c-0.5,0.8-1.3,1-2.1,1.5c-0.8,0.3-1.8,0.5-2.8,0.5c-1.3,0-2.6-0.3-3.3-0.8c-1-0.5-1.8-1.3-2.3-2.3c-0.5-1-0.8-2-0.8-3.3
				c0-1.3,0.3-2.3,0.8-3.3s1.3-1.8,2.3-2.3c1-0.5,2.1-0.8,3.1-0.8c1.3,0,2.3,0.3,3.1,0.8c1,0.5,1.5,1.3,2.1,2.3c0.5,1,0.8,2,0.8,3.3
				C255.3,170.3,255.3,170.6,255.3,170.8z M246.6,166.8c-0.8,0.8-1,1.5-1.3,2.5h8c0-1-0.5-1.8-1.3-2.5c-0.8-0.8-1.5-1-2.6-1
				C248.1,165.7,247.1,166.3,246.6,166.8z"/>
			<path class="st0" d="M277.5,165.2c0.8,0.8,1.3,2.3,1.3,4.1v7.1h-2.3v-6.9c0-1.3-0.3-2-0.8-2.5c-0.5-0.5-1.3-0.8-2.3-0.8
				s-2.1,0.3-2.6,1c-0.8,0.8-1,1.8-1,3.1v6.4h-2.3v-6.9c0-1.3-0.3-2-0.8-2.5s-1.3-0.8-2.3-0.8s-2.1,0.3-2.6,1c-0.8,0.8-1,1.8-1,3.1
				v6.4h-2.3v-12.2h2.1v1.8c0.5-0.8,1-1,1.8-1.5c0.8-0.3,1.5-0.5,2.6-0.5s1.8,0.3,2.6,0.5c0.8,0.5,1.3,1,1.8,1.8
				c0.5-0.8,1-1.3,2.1-1.8c0.8-0.5,1.8-0.5,2.8-0.5C275.4,164,276.4,164.5,277.5,165.2z"/>
			<path class="st0" d="M282.9,161.4c-0.3-0.3-0.5-0.5-0.5-1c0-0.5,0.3-0.8,0.5-1c0.3-0.3,0.8-0.5,1-0.5c0.5,0,0.8,0.3,1,0.5
				c0.3,0.3,0.5,0.5,0.5,1c0,0.5-0.3,0.8-0.5,1c-0.3,0.3-0.8,0.5-1,0.5C283.7,161.9,283.1,161.7,282.9,161.4z M282.9,164.2h2.3v12.2
				h-2.3V164.2z"/>
			<path class="st0" d="M290.1,175.9c-1-0.3-1.5-0.5-2.3-1l1-1.8c0.5,0.5,1.3,0.8,2.1,1c0.8,0.3,1.5,0.3,2.3,0.3
				c2.1,0,2.8-0.5,2.8-1.5c0-0.3-0.3-0.8-0.5-0.8s-0.5-0.3-1-0.5c-0.5-0.3-1-0.3-1.8-0.3c-1-0.3-1.8-0.3-2.3-0.5
				c-0.5-0.3-1-0.5-1.5-1c-0.5-0.5-0.8-1-0.8-2s0.5-2,1.3-2.5c1-0.8,2.1-1,3.9-1c0.8,0,1.5,0,2.6,0.3c0.8,0.3,1.5,0.5,2.1,0.8
				l-1,1.8c-1-0.8-2.3-1-3.6-1c-1,0-1.5,0.3-2.1,0.5c-0.5,0.3-0.8,0.8-0.8,1.3s0.3,0.8,0.5,1c0.3,0.3,0.5,0.5,1,0.5
				c0.5,0,1,0.3,1.8,0.3c1,0.3,1.8,0.3,2.3,0.5c0.5,0.3,1,0.5,1.5,1c0.5,0.5,0.8,1,0.8,2s-0.5,2-1.5,2.5c-1,0.8-2.3,1-3.9,1
				C291.9,176.4,290.9,176.2,290.1,175.9z"/>
			<path class="st0" d="M307.9,175.7c-0.3,0.3-0.8,0.5-1.3,0.8c-0.5,0.3-1,0.3-1.5,0.3c-1.3,0-2.3-0.3-2.8-1c-0.8-0.8-1-1.5-1-2.8
				v-6.6h-2.1v-1.8h2.1v-2.5h2.3v2.5h3.6v1.8h-3.6v6.6c0,0.8,0.3,1.3,0.5,1.5c0.3,0.3,0.8,0.5,1.5,0.5s1.3-0.3,1.8-0.5L307.9,175.7z
				"/>
			<path class="st0" d="M314.5,164.5c0.8-0.3,1.8-0.5,2.8-0.5v2c0,0-0.3,0-0.5,0c-1.3,0-2.1,0.3-2.8,1c-0.8,0.8-1,1.8-1,3.1v6.1
				h-2.3V164h2.1v2C313.3,165.5,313.8,165,314.5,164.5z"/>
			<path class="st0" d="M331.5,164.2l-5.9,13.5c-0.5,1.3-1,2-1.8,2.5s-1.5,0.8-2.6,0.8c-0.5,0-1.3,0-1.8-0.3c-0.5-0.3-1-0.5-1.3-0.8
				l1-1.8c0.8,0.5,1.3,0.8,2.3,0.8c0.5,0,1-0.3,1.3-0.5c0.3-0.3,0.8-0.8,1-1.5l0.5-0.8l-5.4-12.2h2.3l4.4,9.7l4.1-9.7L331.5,164.2
				L331.5,164.2z"/>
			<path class="st0" d="M349.6,164.7c1,0.5,1.8,1.3,2.3,2.3c0.5,1,0.8,2,0.8,3.3c0,1.3-0.3,2.3-0.8,3.3c-0.5,1-1.3,1.8-2.3,2.3
				c-1,0.5-2.1,0.8-3.1,0.8c-1,0-1.8-0.3-2.6-0.5c-0.8-0.3-1.3-0.8-1.8-1.5v2H340v-17.1h2.3v6.6c0.5-0.8,1-1,1.8-1.5
				c0.8-0.3,1.5-0.5,2.6-0.5C347.5,164,348.5,164.2,349.6,164.7z M348.3,173.9c0.5-0.3,1-0.8,1.5-1.5c0.3-0.8,0.5-1.3,0.5-2.3
				c0-0.8-0.3-1.5-0.5-2.3c-0.3-0.8-0.8-1-1.5-1.5c-0.5-0.3-1.3-0.5-2.1-0.5c-0.8,0-1.5,0.3-2.1,0.5c-0.8,0.3-1,0.8-1.5,1.5
				c-0.3,0.8-0.5,1.3-0.5,2.3c0,0.8,0.3,1.5,0.5,2.3c0.3,0.8,0.8,1.3,1.5,1.5c0.8,0.3,1.3,0.5,2.1,0.5
				C347,174.4,347.5,174.4,348.3,173.9z"/>
			<path class="st0" d="M366.8,170.8h-10c0.3,1,0.5,2,1.5,2.5c0.8,0.8,1.8,1,3.1,1c1.5,0,2.6-0.5,3.6-1.5l1.3,1.5
				c-0.5,0.8-1.3,1-2.1,1.5c-0.8,0.3-1.8,0.5-2.8,0.5c-1.3,0-2.6-0.3-3.3-0.8c-1-0.5-1.8-1.3-2.3-2.3s-0.8-2-0.8-3.3
				c0-1.3,0.3-2.3,0.8-3.3s1.3-1.8,2.3-2.3c1-0.5,2.1-0.8,3.1-0.8s2.3,0.3,3.1,0.8c1,0.5,1.5,1.3,2.1,2.3c0.5,1,0.8,2,0.8,3.3
				C366.8,170.3,366.8,170.6,366.8,170.8z M358.1,166.8c-0.8,0.8-1,1.5-1.3,2.5h8c0-1-0.5-1.8-1.3-2.5c-0.8-0.8-1.5-1-2.6-1
				C359.9,165.7,358.6,166.3,358.1,166.8z"/>
			<path class="st0" d="M380.5,164.2l-5.9,13.5c-0.5,1.3-1,2-1.8,2.5c-0.8,0.5-1.5,0.8-2.6,0.8c-0.5,0-1.3,0-1.8-0.3
				c-0.5-0.3-1-0.5-1.3-0.8l1-1.8c0.8,0.5,1.3,0.8,2.3,0.8c0.5,0,1-0.3,1.3-0.5c0.3-0.3,0.8-0.8,1-1.5l0.5-0.8l-5.4-12.2h2.3
				l4.4,9.7l4.1-9.7L380.5,164.2L380.5,164.2z"/>
			<path class="st0" d="M384.3,175.7c-1-0.5-1.8-1.3-2.3-2.3c-0.5-1-0.8-2-0.8-3.3c0-1.3,0.3-2.3,0.8-3.3c0.5-1,1.3-1.8,2.3-2.3
				c1-0.5,2.1-0.8,3.3-0.8c1.3,0,2.3,0.3,3.3,0.8c1,0.5,1.8,1.3,2.3,2.3c0.5,1,0.8,2,0.8,3.3c0,1.3-0.3,2.3-0.8,3.3
				c-0.5,1-1.3,1.8-2.3,2.3c-1,0.5-2.1,0.8-3.3,0.8C386.4,176.4,385.3,176.2,384.3,175.7z M389.7,173.9c0.5-0.3,1-0.8,1.5-1.5
				c0.3-0.8,0.5-1.3,0.5-2.3c0-0.8-0.3-1.5-0.5-2.3c-0.3-0.8-0.8-1-1.5-1.5c-0.5-0.3-1.3-0.5-2.1-0.5c-0.8,0-1.5,0.3-2.1,0.5
				c-0.8,0.3-1,0.8-1.5,1.5c-0.3,0.8-0.5,1.3-0.5,2.3c0,0.8,0.3,1.5,0.5,2.3c0.3,0.8,0.8,1.3,1.5,1.5c0.8,0.3,1.3,0.5,2.1,0.5
				C388.4,174.4,389,174.4,389.7,173.9z"/>
			<path class="st0" d="M407.2,165.2c1,0.8,1.3,2.3,1.3,4.1v7.1h-2.3v-6.9c0-1.3-0.3-2-0.8-2.5s-1.3-0.8-2.6-0.8
				c-1.3,0-2.1,0.3-2.8,1c-0.8,0.8-1,1.8-1,3.1v6.4h-2.3v-12.2h2.1v1.8c0.5-0.8,1-1,1.8-1.5c0.8-0.3,1.5-0.5,2.6-0.5
				C405.2,164,406.5,164.5,407.2,165.2z"/>
			<path class="st0" d="M424.5,159.1v17.1h-2.1v-2c-0.5,0.8-1,1.3-1.8,1.5c-0.8,0.3-1.5,0.5-2.6,0.5c-1.3,0-2.3-0.3-3.1-0.8
				c-0.8-0.5-1.8-1.3-2.3-2.3s-0.8-2-0.8-3.3c0-1.3,0.3-2.3,0.8-3.3s1.3-1.8,2.3-2.3c1-0.5,2.1-0.8,3.1-0.8c0.8,0,1.8,0.3,2.6,0.5
				c0.8,0.3,1.3,0.8,1.8,1.5v-6.6C422.4,159.1,424.5,159.1,424.5,159.1z M420.4,173.9c0.8-0.3,1-0.8,1.5-1.5
				c0.3-0.8,0.5-1.3,0.5-2.3c0-0.8-0.3-1.5-0.5-2.3c-0.3-0.8-0.8-1-1.5-1.5c-0.8-0.3-1.3-0.5-2.1-0.5c-0.8,0-1.5,0.3-2.1,0.5
				c-0.8,0.3-1,0.8-1.5,1.5c-0.3,0.8-0.5,1.3-0.5,2.3c0,0.8,0.3,1.5,0.5,2.3c0.3,0.8,0.8,1.3,1.5,1.5c0.8,0.3,1.3,0.5,2.1,0.5
				C419.1,174.4,419.6,174.4,420.4,173.9z"/>
			<path class="st0" d="M442,175.7c-0.3,0.3-0.8,0.5-1.3,0.8c-0.5,0.3-1,0.3-1.5,0.3c-1.3,0-2.3-0.3-2.8-1c-0.5-0.8-1-1.5-1-2.8
				v-6.6h-2.1v-1.8h2.1v-2.5h2.3v2.5h3.6v1.8h-3.6v6.6c0,0.8,0.3,1.3,0.5,1.5c0.3,0.3,0.8,0.5,1.5,0.5c0.8,0,1.3-0.3,1.8-0.5
				L442,175.7z"/>
			<path class="st0" d="M454.9,165.2c1,0.8,1.3,2.3,1.3,4.1v7.1h-2.3v-6.9c0-1.3-0.3-2-0.8-2.5c-0.5-0.5-1.3-0.8-2.6-0.8
				s-2.1,0.3-2.8,1c-0.8,0.8-1,1.8-1,3.1v6.4h-2.3v-17.1h2.3v6.6c0.5-0.5,1-1,1.8-1.3c0.8-0.3,1.5-0.5,2.6-0.5
				C452.8,164,454.1,164.5,454.9,165.2z"/>
			<path class="st0" d="M471.6,170.8h-10c0.3,1,0.5,2,1.5,2.5c0.8,0.8,1.8,1,3.1,1c1.5,0,2.6-0.5,3.6-1.5l1.3,1.5
				c-0.5,0.8-1.3,1-2.1,1.5c-0.8,0.3-1.8,0.5-2.8,0.5c-1.3,0-2.6-0.3-3.3-0.8c-1-0.5-1.8-1.3-2.3-2.3c-0.5-1-0.8-2-0.8-3.3
				c0-1.3,0.3-2.3,0.8-3.3c0.5-1,1.3-1.8,2.3-2.3c1-0.5,2.1-0.8,3.1-0.8c1.3,0,2.3,0.3,3.1,0.8c1,0.5,1.5,1.3,2.1,2.3
				c0.5,1,0.8,2,0.8,3.3C471.6,170.3,471.6,170.6,471.6,170.8z M462.8,166.8c-0.8,0.8-1,1.5-1.3,2.5h8c0-1-0.5-1.8-1.3-2.5
				c-0.8-0.8-1.5-1-2.6-1C464.6,165.7,463.6,166.3,462.8,166.8z"/>
			<path class="st0" d="M482.9,175.7c-1-0.5-1.8-1.3-2.3-2.3c-0.5-1-0.8-2-0.8-3.3c0-1.3,0.3-2.3,0.8-3.3c0.5-1,1.3-1.8,2.3-2.3
				c1-0.5,2.1-0.8,3.3-0.8c1.3,0,2.3,0.3,3.3,0.8c1,0.5,1.8,1.3,2.3,2.3c0.5,1,0.8,2,0.8,3.3c0,1.3-0.3,2.3-0.8,3.3
				c-0.5,1-1.3,1.8-2.3,2.3c-1,0.5-2.1,0.8-3.3,0.8C485,176.4,484,176.2,482.9,175.7z M488.3,173.9c0.5-0.3,1-0.8,1.5-1.5
				c0.3-0.8,0.5-1.3,0.5-2.3c0-0.8-0.3-1.5-0.5-2.3c-0.3-0.8-0.8-1-1.5-1.5c-0.5-0.3-1.3-0.5-2.1-0.5c-0.8,0-1.5,0.3-2.1,0.5
				c-0.8,0.3-1,0.8-1.5,1.5c-0.3,0.8-0.5,1.3-0.5,2.3c0,0.8,0.3,1.5,0.5,2.3c0.3,0.8,0.8,1.3,1.5,1.5c0.8,0.3,1.3,0.5,2.1,0.5
				C487,174.4,487.8,174.4,488.3,173.9z"/>
			<path class="st0" d="M499.7,164.5c0.8-0.3,1.8-0.5,2.8-0.5v2c0,0-0.3,0-0.5,0c-1.3,0-2.1,0.3-2.8,1c-0.8,0.8-1,1.8-1,3.1v6.1
				h-2.3V164h2.1v2C498.4,165.5,498.9,165,499.7,164.5z"/>
			<path class="st0" d="M516.7,159.1v17.1h-2.1v-2c-0.5,0.8-1,1.3-1.8,1.5c-0.8,0.3-1.5,0.5-2.6,0.5c-1.3,0-2.3-0.3-3.1-0.8
				c-0.8-0.5-1.8-1.3-2.3-2.3s-0.8-2-0.8-3.3c0-1.3,0.3-2.3,0.8-3.3s1.3-1.8,2.3-2.3c1-0.5,2.1-0.8,3.1-0.8c0.8,0,1.8,0.3,2.6,0.5
				c0.8,0.3,1.3,0.8,1.8,1.5v-6.6C514.3,159.1,516.7,159.1,516.7,159.1z M512.5,173.9c0.8-0.3,1-0.8,1.5-1.5
				c0.3-0.8,0.5-1.3,0.5-2.3c0-0.8-0.3-1.5-0.5-2.3c-0.3-0.8-0.8-1-1.5-1.5c-0.8-0.3-1.3-0.5-2.1-0.5c-0.8,0-1.5,0.3-2.1,0.5
				c-0.8,0.3-1,0.8-1.5,1.5c-0.3,0.8-0.5,1.3-0.5,2.3c0,0.8,0.3,1.5,0.5,2.3c0.3,0.8,0.8,1.3,1.5,1.5c0.8,0.3,1.3,0.5,2.1,0.5
				C511.2,174.4,511.8,174.4,512.5,173.9z"/>
			<path class="st0" d="M521,161.4c-0.3-0.3-0.5-0.5-0.5-1c0-0.5,0.3-0.8,0.5-1s0.8-0.5,1-0.5c0.5,0,0.8,0.3,1,0.5
				c0.3,0.3,0.5,0.5,0.5,1c0,0.5-0.3,0.8-0.5,1c-0.3,0.3-0.8,0.5-1,0.5S521.3,161.7,521,161.4z M520.8,164.2h2.3v12.2h-2.3V164.2z"
				/>
			<path class="st0" d="M537.8,165.2c1,0.8,1.3,2.3,1.3,4.1v7.1h-2.3v-6.9c0-1.3-0.3-2-0.8-2.5s-1.3-0.8-2.6-0.8s-2.1,0.3-2.8,1
				c-0.8,0.8-1,1.8-1,3.1v6.4h-2.3v-12.2h2.1v1.8c0.5-0.8,1-1,1.8-1.5c0.8-0.3,1.5-0.5,2.6-0.5C535.4,164,536.7,164.5,537.8,165.2z"
				/>
			<path class="st0" d="M551.7,165.2c0.8,0.8,1.3,2,1.3,3.8v7.4h-2.1v-1.5c-0.3,0.5-0.8,1-1.5,1.3c-0.8,0.3-1.5,0.5-2.6,0.5
				c-1.3,0-2.6-0.3-3.3-1c-0.8-0.8-1.3-1.5-1.3-2.5s0.5-2,1.3-2.5c0.8-0.8,2.1-1,3.9-1h3.6v-0.5c0-1-0.3-1.8-0.8-2.3
				c-0.5-0.5-1.3-0.8-2.6-0.8c-0.8,0-1.5,0-2.1,0.3c-0.8,0.3-1.3,0.5-1.8,1l-1-1.5c0.8-0.5,1.3-0.8,2.3-1.3c0.8-0.3,1.8-0.5,2.8-0.5
				C549.4,164,550.6,164.5,551.7,165.2z M549.4,174.2c0.5-0.3,1-1,1.3-1.5v-1.8h-3.3c-1.8,0-2.8,0.8-2.8,1.8c0,0.5,0.3,1,0.8,1.5
				c0.5,0.3,1,0.5,2.1,0.5C548.1,174.7,548.8,174.7,549.4,174.2z"/>
			<path class="st0" d="M560.9,164.5c0.8-0.3,1.8-0.5,2.8-0.5v2c0,0-0.3,0-0.5,0c-1.3,0-2.1,0.3-2.8,1c-0.8,0.8-1,1.8-1,3.1v6.1
				h-2.3V164h2.1v2C559.6,165.5,560.2,165,560.9,164.5z"/>
			<path class="st0" d="M577.9,164.2l-5.9,13.5c-0.5,1.3-1,2-1.8,2.5c-0.8,0.5-1.5,0.8-2.6,0.8c-0.5,0-1.3,0-1.8-0.3
				c-0.5-0.3-1-0.5-1.3-0.8l0.8-1.8c0.8,0.5,1.3,0.8,2.3,0.8c0.5,0,1-0.3,1.3-0.5c0.3-0.3,0.8-0.8,1-1.5l0.5-0.8l-5.4-12.2h2.3
				l4.4,9.7l4.1-9.7L577.9,164.2L577.9,164.2z"/>
		</g>
	</g>
	<g>
		<polygon class="st1" points="367.9,216.2 360.2,216.5 361.3,208.1 367.7,208.4 368,206.1 361.5,206.4 362.5,198.6 368.7,198.8 
			369.2,201.8 371,201.8 371.2,197.3 357.7,197.3 357.5,198.5 359.4,198.8 357.2,216.6 355.1,216.9 354.9,218.1 370.1,218.1 
			371.2,213.1 369.5,212.8 		"/>
		<path class="st1" d="M379.6,202.2c-1,0-2,0.2-2.9,0.5c-0.9,0.4-1.5,0.9-2,1.6c-0.5,0.7-0.7,1.4-0.7,2.3c0,1.7,1,3.3,2.9,4.6
			c0.9,0.6,1.5,1.2,2,1.6s0.7,1,0.7,1.7c0,0.8-0.3,1.3-0.8,1.7c-0.6,0.3-1.2,0.5-2,0.5c-0.7,0-1.5-0.1-2.2-0.4
			c-0.7-0.3-1.2-0.5-1.6-0.8l-0.5,2c0.3,0.2,0.8,0.4,1.7,0.6c0.8,0.2,1.7,0.3,2.5,0.3c1,0,2-0.2,2.9-0.5c0.9-0.3,1.6-0.9,2.1-1.5
			c0.5-0.7,0.8-1.5,0.8-2.5c0-0.7-0.1-1.3-0.4-1.9c-0.3-0.6-0.7-1-1.1-1.4c-0.4-0.4-0.9-0.8-1.6-1.3c-0.8-0.6-1.4-1.1-1.8-1.6
			c-0.4-0.5-0.6-1-0.6-1.6c0-0.7,0.3-1.2,0.8-1.6c0.5-0.4,1.2-0.5,2-0.5c0.7,0,1.4,0.1,1.9,0.4c0.6,0.3,0.9,0.5,1.1,0.7l0.5-2.2
			c-0.3-0.1-0.8-0.2-1.5-0.3C380.9,202.2,380.2,202.2,379.6,202.2z"/>
		<path class="st1" d="M391,198.7h-1.6c-0.8,2.1-1.4,3.4-1.8,3.8l-1.7,0.6l-0.3,1.1h1.7l-1.3,9.5c-0.1,1.1-0.2,1.9-0.2,2.2
			c0,0.8,0.2,1.4,0.7,1.8c0.4,0.4,1,0.6,1.8,0.6c0.9,0,1.8-0.2,2.7-0.7c0.9-0.4,1.5-0.9,1.9-1.4l-0.3-1c-0.3,0.2-0.7,0.5-1.2,0.7
			s-1,0.3-1.4,0.3c-0.4,0-0.8-0.1-0.9-0.3c-0.2-0.2-0.3-0.5-0.3-1c0-0.5,0.1-1.2,0.2-2l1.2-8.9h3.6l0.2-1.8h-3.6L391,198.7z"/>
		<path class="st1" d="M396.6,214.5c-0.5,0-1,0.2-1.4,0.6c-0.4,0.4-0.6,1-0.6,1.6c0,0.5,0.1,0.9,0.4,1.2c0.3,0.3,0.6,0.4,1,0.4
			c0.6,0,1.1-0.2,1.5-0.6s0.6-1,0.6-1.6c0-0.5-0.1-0.9-0.4-1.2S397.2,214.5,396.6,214.5z"/>
		<path class="st1" d="M416.8,202.5l-1.4-0.3c-0.8,0.6-1.8,1.1-2.9,1.7c-1.1,0.5-2.1,0.9-3,1.1l0.2,1.3c0.9-0.2,2.1-0.5,3.8-1
			l-1.7,11.4l-3,0.3l-0.1,1.1h9.1l0.1-1.1l-3.1-0.3L416.8,202.5z"/>
		<path class="st1" d="M432.5,203c-0.9-0.6-2-0.8-3.2-0.8c-1.5,0-2.8,0.4-4,1.1c-1.1,0.8-2,1.8-2.6,3s-0.9,2.5-0.9,3.8
			c0,1,0.2,2,0.6,2.9c0.4,0.9,0.9,1.6,1.7,2.1c0.8,0.5,1.7,0.8,2.8,0.8c1.1,0,2-0.2,2.8-0.6c0.8-0.4,1.5-0.9,2-1.5
			c-0.4,1.2-1,2.4-1.9,3.6s-1.9,2.3-3.1,3.2c-1.2,0.9-2.5,1.6-3.8,2l0.5,1.3c2.2-0.6,4.3-1.7,6.1-3.2c1.8-1.5,3.2-3.3,4.3-5.4
			c1-2.1,1.6-4.3,1.6-6.5c0-1.3-0.2-2.5-0.7-3.5C434.1,204.4,433.4,203.6,432.5,203z M432,211.9c-1.2,1.5-2.6,2.2-4.3,2.2
			c-0.9,0-1.7-0.4-2.2-1.2c-0.6-0.8-0.8-1.9-0.8-3.4c0-0.9,0.2-1.8,0.5-2.7c0.3-0.9,0.8-1.7,1.5-2.3c0.7-0.6,1.4-0.9,2.4-0.9
			c1.1,0,2,0.4,2.5,1.3c0.6,0.9,0.8,2.1,0.8,3.6C432.3,209.8,432.2,210.9,432,211.9z"/>
		<path class="st1" d="M447.1,204.6c-1.1,0-2.1,0.2-2.9,0.6s-1.5,0.9-2,1.5c0.4-1.2,1-2.4,1.9-3.6s1.9-2.2,3.1-3.2
			c1.2-0.9,2.4-1.6,3.7-2.1l-0.5-1.3c-2.2,0.6-4.3,1.6-6.1,3.2s-3.2,3.3-4.3,5.4c-1,2.1-1.5,4.2-1.5,6.4c0,1.3,0.2,2.5,0.7,3.5
			c0.5,1,1.2,1.9,2.1,2.5s2,0.9,3.2,0.9c1.4,0,2.7-0.4,3.9-1.2c1.1-0.8,2-1.8,2.7-3.2c0.6-1.3,1-2.7,1-4.1c0-1.5-0.4-2.8-1.3-3.8
			C450,205.1,448.7,204.6,447.1,204.6z M448.8,213.5c-0.3,1-0.8,1.8-1.4,2.5c-0.6,0.7-1.4,1-2.4,1c-1.2,0-2-0.4-2.6-1.3
			c-0.6-0.8-0.8-2-0.8-3.5c0-1.1,0.1-2.3,0.4-3.5c0.4-0.6,1-1.1,1.7-1.6c0.7-0.4,1.5-0.7,2.6-0.7c0.9,0,1.7,0.4,2.2,1.1
			c0.5,0.7,0.8,1.7,0.8,3.1C449.2,211.5,449.1,212.5,448.8,213.5z"/>
		<path class="st1" d="M461.3,216.6l2-14.1l-1.4-0.3c-0.8,0.6-1.8,1.1-2.9,1.7c-1.1,0.5-2.1,0.9-3,1.1l0.2,1.3
			c0.9-0.2,2.1-0.5,3.8-1l-1.7,11.4l-3,0.3l-0.1,1.1h9.1l0.1-1.1L461.3,216.6z"/>
		<path class="st1" d="M100.4,129.5c4.3,0,7.9-0.8,11.2-2.3c3.1-1.5,5.9-3.8,7.6-6.9c1.8-3.1,2.8-6.6,2.8-10.7
			c0-4.8-1.3-8.2-4.1-10.5c-2.5-2.3-6.9-3.3-12.5-3.3c-1.3,0-2.8,0-5.1,0.3c-2.3,0.3-4.1,0.3-5.6,0.5h-8.7l-0.3,3.1l4.6,0.8
			l-5.6,43.3l-4.8,0.8l-0.3,2.8h19.9l0.3-2.8l-7.1-0.8l1.8-14.5C95.8,129.5,97.6,129.5,100.4,129.5z M98.1,99.7
			c2.3-0.3,4.3-0.5,6.4-0.5c3.3,0,5.9,1,7.4,2.5c1.5,1.8,2.3,4.1,2.3,7.4c0,5.4-1.3,9.4-3.6,12.2c-2.3,2.8-5.9,4.3-10.2,4.3
			c-2.3,0-4.1-0.3-5.6-0.8L98.1,99.7z"/>
		<path class="st1" d="M142.9,108.6c-3.8,0-7.1,1-10.2,3.3c-3.1,2-5.4,5.1-7.1,8.7c-1.8,3.6-2.5,7.6-2.5,11.7c0,5.1,1,8.9,3.6,11.7
			c2.5,2.8,5.9,4.1,10.5,4.1c3.8,0,7.1-1,10.2-3.3s5.4-5.4,7.1-8.9c1.8-3.6,2.5-7.6,2.5-11.7c0-5.1-1-8.9-3.6-11.7
			C151,109.7,147.5,108.4,142.9,108.6z M148,133.4c-1,3.1-2.3,5.6-3.8,7.6c-1.5,2-3.6,3.1-5.9,3.1c-4.8,0-7.4-4.1-7.4-12.5
			c0-3.1,0.5-6.4,1.3-9.2c0.8-2.8,2-5.4,3.8-7.4c1.5-1.8,3.6-2.8,6.1-3.1c4.8,0,7.1,4.1,7.1,12.2C149.3,127.3,148.8,130.3,148,133.4
			z"/>
		<path class="st1" d="M163.8,143.3c0,1.5,0.3,2.5,1.3,3.3c1,0.8,2,1,3.6,1c2,0,3.8-0.5,5.1-1.5c1.5-1,2.3-2,3.1-3.1l-0.8-1.8
			c-1.5,1.3-2.8,2-3.6,2s-1.8-0.4-1.8-1.4c0-0.3,0.1-0.6,0.3-1.7l6.6-48.2l-1.5-0.8l-9.7,1.3l-0.5,2.5l4.3,1.3l-6.1,44.4
			C163.9,141.9,163.8,143.1,163.8,143.3z"/>
		<path class="st1" d="M189.9,109.4c-0.8-0.8-2-1.3-3.6-1.3s-3.1,0.5-4.3,1.5s-2.3,1.8-2.8,2.5l0.8,2c1-0.8,1.8-1.3,2.5-1.3
			c0.5,0,0.8,0.3,1,0.5c0.3,0.3,0.5,0.8,0.5,1.5l6.9,34.7h3.8c-1.5,3.3-3.6,5.9-5.6,7.4c-2,1.5-4.1,2.3-6.1,2.3
			c-1.3,0-2.5-0.3-3.6-0.5c-1-0.3-1.8-0.5-2.3-1l-1.8,5.1c0.5,0.3,1.5,0.5,2.8,0.8s2.5,0.3,3.6,0.3c2.8,0,5.1-0.5,7.1-1.8
			c1.8-1.3,3.6-3.1,5.1-5.4c1.8-2,3.6-5.1,5.9-8.9c2.3-3.8,4.3-7.9,6.4-12c1.8-3.3,3.1-6.1,4.1-7.9c1-1.8,1.8-3.8,2.5-6.4
			c0.8-2.5,1-4.8,1-7.1c0-2-0.5-3.3-1.3-4.6c-0.8-1.3-1.8-1.8-3.3-1.8c-1,0-2,0.3-2.5,0.8c-0.8,0.5-1,1.5-1,2.5
			c0,0.8,0.3,1.8,0.8,2.8c0.3,0,0.3,0.3,0.5,1s0.3,1.5,0.3,2.3c0,2.5-0.8,5.4-1.5,8.2s-2.3,6.4-4.3,10.5l-1,2l-4.3,8.7l-1-8.4
			l-3.8-25.7C191.2,111.5,190.7,110.2,189.9,109.4z"/>
		<path class="st1" d="M234.6,112.2c1.8,0,3.6,0.3,4.8,1c1.5,0.8,2.3,1.3,2.3,1.5l1.3-5.4c-0.8-0.3-1.8-0.5-3.6-0.8
			s-3.6-0.5-5.1-0.5c-2.5,0-4.8,0.3-6.9,1.3c-2,1-3.6,2.3-4.8,3.8c-1.3,1.5-1.8,3.6-1.8,5.6c0,4.3,2.3,7.9,6.9,11.2
			c2,1.5,3.8,3.1,4.8,4.1c1,1,1.5,2.5,1.5,4.1c0,1.8-0.8,3.3-2,4.1c-1.3,0.8-2.8,1.3-4.8,1.3c-1.8,0-3.6-0.3-5.4-1
			c-1.5-0.5-2.8-1.3-3.8-2l-1.3,5.1c0.8,0.5,2,1,4.1,1.5c2,0.5,4.1,0.8,6.1,0.8c2.5,0,4.8-0.5,7.1-1.3c2-1,3.8-2,5.1-3.8
			s2-3.8,2-6.1c0-1.5-0.3-3.3-1-4.6c-0.8-1.5-1.5-2.5-2.5-3.6c-1-0.8-2.3-1.8-3.8-3.1c-1.8-1.3-3.3-2.5-4.3-3.8
			c-1-1.3-1.5-2.5-1.5-4.1c0-1.8,0.8-3.1,1.8-4.1C230.8,112.7,232.6,112.2,234.6,112.2z"/>
		<path class="st1" d="M259.5,115c1.5-1.5,3.6-2.3,5.6-2.3c1.5,0,3.6,1.3,6.1,4.1l1.3,0.3l1.5-7.1c-1-0.3-2-0.8-3.6-1
			c-1.3-0.3-2.8-0.5-4.1-0.5c-4.3,0-7.9,1.3-11,3.6c-3.1,2.3-5.4,5.4-6.9,9.2c-1.5,3.8-2.3,7.4-2.3,11.2c0,4.8,1,8.7,3.3,11.5
			s5.4,4.1,9.2,4.1c3.1,0,5.6-0.8,7.9-2c2.3-1.3,4.1-2.8,5.1-4.3l-1.5-2.5c-1.5,1.3-3.1,2.3-4.3,3.1c-1.3,0.8-2.8,1-4.8,1
			c-4.6,0-7.1-4.1-7.1-11.7c0-3.6,0.5-6.9,1.5-9.7C256.4,118.8,257.7,116.5,259.5,115z"/>
		<path class="st1" d="M286,93.6c-1,1-1.5,2-1.5,3.6c0,1,0.3,2,1,2.8c0.8,0.8,1.5,1.3,2.8,1.3c1.5,0,2.5-0.5,3.6-1.5
			c1-1,1.5-2.3,1.5-3.8c0-1-0.3-2-1-2.8c-0.5-0.8-1.5-1-2.8-1C288,92.1,287,92.6,286,93.6z"/>
		<path class="st1" d="M278.9,143.6c-0.3,1.5,0.3,2.5,1,3.3c0.8,0.8,2,1,3.6,1c2,0,3.6-0.5,5.1-1.5c1.3-1,2.3-2,3.1-3.1l-0.8-1.8
			c-0.8,0.8-1.5,1.3-2,1.5s-1,0.5-1.5,0.5c-0.3,0-0.5-0.3-0.8-0.5s-0.3-0.8-0.3-1.3v-0.5l4.6-31.9l-1.5-0.8l-10.2,1.5l-0.5,2.3
			l4.3,1.5c-0.3,2.3-1,7.6-2.3,16.6C279.6,137.2,279.1,141.5,278.9,143.6z"/>
		<path class="st1" d="M303.1,145.9c2,1.3,4.6,2,7.6,2c3.3,0,6.4-0.8,8.9-2.3s4.6-3.3,5.1-5.4l-1.5-2.5c-1.5,1.8-3.3,3.1-5.4,4.1
			c-1.8,1-3.8,1.5-5.9,1.5c-2.5,0-4.6-1-5.9-3.3c-1.3-2.3-1.8-4.8-1.5-8.2c2.8,0,5.9-0.8,9.4-1.8c3.6-1,6.6-2.5,9.2-4.8
			c2.5-2,3.8-4.8,3.8-8.2c0-2.5-1-4.6-2.5-6.1c-1.5-1.5-4.1-2.3-7.4-2.3c-3.6,0-7.1,1-10.2,3.3c-3.3,2-5.6,5.1-7.4,8.9
			c-1.8,3.6-2.5,7.9-2.5,12.2c0,2.8,0.5,5.1,1.5,7.4C299.5,142.5,301,144.6,303.1,145.9z M306.6,120.9c1-2.5,2.3-4.6,3.8-6.4
			c1.5-1.5,3.3-2.5,5.1-2.5c1.5,0,2.5,0.5,3.3,1.3c0.8,1,1.3,2.3,1.3,4.1c0,2-0.8,3.8-2.3,5.6c-1.5,1.5-3.6,2.8-5.9,3.8
			s-4.6,1.5-6.9,1.5C305.1,126,305.6,123.4,306.6,120.9z"/>
		<path class="st1" d="M357.6,114.8c0.8,0.8,1,2.3,1,4.3c0,2.3-0.5,6.1-1.5,11.5l-0.3,1.5l-0.5,2.5c-0.8,4.6-1.3,7.4-1.3,8.9
			c0,2.8,1.5,4.3,4.6,4.3c2,0,3.6-0.8,5.1-1.5c1.5-0.8,2.5-1.8,3.1-2.5l-0.8-1.8c-1.3,1-2.3,1.5-3.3,1.5c-0.5,0-0.8-0.5-0.8-1.8
			v-0.5c0-2,0.2-4.9,1-8.9l0.3-1.8l0.5-2.5c0.8-4.8,1.3-7.9,1.3-9.7c0-3.6-0.8-6.1-2-7.6s-3.3-2.3-5.9-2.3c-2.5,0-5.1,1-7.6,2.5
			c-2.3,1.5-4.6,3.6-6.6,6.4l0.8-8.2l-1.5-0.8l-8.9,1.5l-0.5,2.5l3.3,1.8l-4.3,32.9h7.1l3.3-24.7c1.5-2.5,3.3-4.6,5.6-6.4
			c2.3-1.8,4.1-2.5,5.9-2.5C356.1,113.5,357.1,114,357.6,114.8z"/>
		<path class="st1" d="M394,108.4c-4.3,0-7.9,1-11,3.6c-3.1,2.3-5.4,5.4-6.9,9.2c-1.5,3.8-2.3,7.4-2.3,11.2c0,4.8,1,8.7,3.3,11.5
			s5.4,4.1,9.2,4.1c3.1,0,5.6-0.8,7.9-2s4.1-2.8,5.1-4.3l-1.5-2.5c-1.5,1.3-3.1,2.3-4.3,3.1c-1.3,0.8-2.8,1-4.8,1
			c-4.6,0-7.1-4.1-7.1-11.7c0-3.6,0.5-6.9,1.5-9.7c1-2.8,2.3-5.1,4.1-6.6c1.5-1.5,3.6-2.3,5.6-2.3c1.5,0,3.6,1.3,6.1,4.1l1.3,0.3
			l1.5-7.1c-1-0.3-2-0.8-3.6-1C396.8,108.6,395.2,108.4,394,108.4z"/>
		<path class="st1" d="M417.5,147.9c3.3,0,6.4-0.8,8.9-2.3c2.5-1.5,4.3-3.3,5.1-5.4l-1.5-2.5c-1.5,1.8-3.3,3.1-5.4,4.1
			c-1.8,1-3.8,1.5-5.9,1.5c-2.5,0-4.6-1-5.9-3.3c-1.3-2.3-1.8-4.8-1.5-8.2c2.8,0,5.9-0.8,9.4-1.8c3.6-1,6.6-2.5,9.2-4.8
			c2.5-2,3.8-4.8,3.8-8.2c0-2.5-1-4.6-2.5-6.1s-4.1-2.3-7.4-2.3c-3.6,0-7.1,1-10.2,3.3c-3.3,2-5.6,5.1-7.4,8.9
			c-1.8,3.6-2.5,7.9-2.5,12.2c0,2.8,0.5,5.1,1.5,7.4c1,2,2.5,4.1,4.6,5.4C411.8,147.1,414.4,147.9,417.5,147.9z M413.1,120.9
			c1-2.5,2.3-4.6,3.8-6.4c1.5-1.5,3.3-2.5,5.1-2.5c1.5,0,2.5,0.5,3.3,1.3c0.8,1,1.3,2.3,1.3,4.1c0,2-0.8,3.8-2.3,5.6
			c-1.5,1.5-3.6,3.1-5.9,3.8c-2.3,1-4.6,1.5-6.9,1.5C411.6,126,412.1,123.4,413.1,120.9z"/>
		<path class="st1" d="M460.1,142.5c1.3-1.8,2-3.8,2-6.1c0-1.5-0.3-3.3-1-4.6c-0.8-1.5-1.5-2.5-2.5-3.6c-1-0.8-2.3-1.8-3.8-3.1
			c-1.8-1.3-3.3-2.5-4.3-3.8s-1.5-2.5-1.5-4.1s0.5-3.1,1.8-3.8c1-0.8,2.8-1.3,4.8-1.3c1.8,0,3.6,0.3,4.8,1c1.3,0.8,2.3,1.3,2.3,1.3
			l1.3-5.4c-0.8-0.3-1.8-0.5-3.6-0.8c-1.8-0.3-3.6-0.5-5.1-0.5c-2.5,0-4.8,0.5-6.9,1.3c-2,1-3.6,2.3-4.8,3.8s-1.8,3.6-1.8,5.6
			c0,4.3,2.3,7.9,6.9,11.2c2,1.5,3.8,3.1,4.8,4.1s1.5,2.5,1.5,4.1c0,1.8-0.8,3.3-2,4.1c-1.3,0.8-2.8,1.3-4.8,1.3
			c-1.8,0-3.6-0.3-5.4-1c-1.5-0.5-2.8-1.3-3.8-2l-1.3,5.1c0.8,0.5,2,1,4.1,1.5c2,0.5,4.1,0.8,6.1,0.8c2.5,0,4.8-0.5,7.1-1.3
			C457.1,145.4,458.8,144.3,460.1,142.5z"/>
		<path class="st1" d="M144.8,230c-4.6,0.8-9.2,1.3-13.9,1.5c0.5-0.2,0.9-0.5,1.4-0.8c7.6-4.3,14-10.2,18.9-17.1h-1
			c-6.1,5.9-12.7,10.7-20.1,13.8c-0.3,0-0.8,0.3-1.3,0.5l-1.3,0.5c-1,0.3-1.8,0.5-2.8,0.8c-0.8,0.3-1.8,0.5-2.8,0.8
			c-0.7,0.2-1.5,0.3-2.4,0.4c0.5-0.8,1-1.6,1.4-2.5c2-3.3,3.1-7.1,4.1-10.7c1-3.6,1.5-7.1,2-11c-1.5,3.6-2.5,7.1-4.1,9.9
			c-0.8,1.8-1.5,3.6-2.3,5.1c-0.8,1.8-1.5,3.3-2.5,4.8c-0.8,1.5-1.8,3.1-3.1,4.1c-0.3,0.2-0.5,0.4-0.8,0.6c-1.7,0-3.5,0-5.2-0.2
			c-0.3-0.3-0.6-0.6-0.9-0.9c-1-1-2-2.5-2.8-4.1c-1.8-3.1-3.1-6.6-4.3-9.9c-0.8-2-1.4-4.1-2.1-6.2l10.7-0.4l-11-0.5
			c-0.3-1.1-0.6-2.2-1-3.3c-2-7.1-3.8-14.3-5.6-21.7c0.3,7.6,1,15,2.5,22.4c0.2,0.8,0.4,1.6,0.5,2.4l-22.9-1c-0.8-1-1.6-2-2.4-2.9
			c-2.5-3.1-4.8-6.6-6.9-9.9c-1-1.8-2-3.6-3.1-5.4l-1.5-2.8l-1.3-2.8c-2.2-4.6-4.1-9.4-5.8-14.3l62.4-1.8l-63.4-1.6
			c-0.6-1.8-1.1-3.7-1.5-5.5c-2-8.2-3.3-16.3-3.8-24.5l-0.3-6.1c0-1.4,0-2.9,0-4.3l21.9-1l-21.9-0.9c0-4,0.3-8.1,0.5-12.1
			c0.8-8.2,2-16.3,3.6-24.2c0.2-1.1,0.4-2.2,0.7-3.4l62-1.7l-61.3-1.6c1.3-5.7,2.9-11.3,5-16.8c0.8-1.8,1.5-3.8,2.3-5.6
			c0.5-1,0.8-1.8,1.3-2.8l1.3-2.8c0.5-1,0.8-2,1.3-2.8l1.3-2.8c0.7-1.6,1.5-3.1,2.4-4.7l27.4-0.6C91,50.9,90.2,60.3,90,69.6
			c1.6-9.6,3.3-18.9,5.3-28.1l33-0.8c1.1,4.8,2.2,9.7,3.2,14.6c-0.2-4.8-0.7-9.8-1.3-14.7l15.8-0.4L130.1,40c0-0.3-0.1-0.6-0.1-0.9
			c-0.8-5.6-1.8-11-3.3-16.3c-0.8-2.5-1.5-5.4-2.5-7.9c-1.1-2.3-2.1-4.6-3.4-6.9c0,0,0.1,0,0.1,0c3.6,0.8,7.4,1.8,11,3.6
			c1.8,0.8,3.3,1.8,5.1,2.8l2.5,1.5l2.5,1.8c3.1,2.5,6.1,5.1,8.9,8.2c2.8,3.1,5.4,6.1,7.9,9.4l0.8-0.5c-2-3.6-4.1-7.4-6.6-10.7
			s-5.4-6.6-8.4-9.4c-3.3-3.1-6.6-5.6-10.5-7.9c-0.1-0.1-0.2-0.1-0.4-0.2c0.7,0.1,1.4,0.1,2.1,0.2c20.1,1.8,40,9.4,56.8,21.4
			c-15.5-13.8-35.2-22.9-56.1-26.5c-7.6-1.3-15.3-1.8-23-1.5c-1.7-0.1-3.3-0.1-5,0c-3.5,0.2-6.8,0.7-10.2,1.6
			C90.1,3,81.8,5.3,73.9,8.5c-19.9,7.9-37.5,21.7-50.5,39l-2.3,3.3c-0.8,1-1.5,2.3-2.3,3.3l-1,1.8l-1,1.5l-2,3.6
			c-1,2.3-2.5,4.6-3.6,7.1c-0.8,1.3-1.3,2.5-1.8,3.8l-1.5,3.8c-2,5.1-3.6,10.2-4.8,15.5c-0.5,2.5-1,5.4-1.5,7.9
			c-0.3,1.3-0.3,2.5-0.5,4.1c-0.3,1.3-0.5,2.8-0.5,4.1c-1,10.7-0.5,21.4,1.3,32.1c1,5.4,2.5,10.7,4.1,15.8l1.3,3.8
			c0.5,1.3,1,2.5,1.5,3.8c1,2.5,2.3,4.8,3.3,7.4c9.4,19.4,24.2,36.2,42.3,47.7c9.2,5.9,18.9,10.5,29.1,13.5c2.5,0.8,5.1,1.3,7.6,2
			l3.8,0.8l2,0.5l1.8,0.3l0.7,0.1c2.5,0.6,5,1,7.5,1.2c1.9,0.2,3.7,0.2,5.6,0.1l2.3,0.1c10.7,0.3,21.2-1,31.4-3.6
			c5.1-1.5,9.9-3.1,14.8-5.1c4.6-2,9.4-4.6,13.8-7.1c-4.6,2-9.4,4.1-14.8,5.6C154.7,227.9,149.9,229.2,144.8,230z M107.1,8
			c0.1-0.1,0.1-0.2,0.2-0.3c0.7-0.1,1.4-0.2,2.1-0.2c2-0.3,3.9-0.3,5.9-0.2c0.6,0.7,1.2,1.4,2,2c2.8,4.3,4.6,9.4,6.4,14.5
			c1.7,5.3,3.2,10.7,4.5,16.1l-32.3-0.8c0.1-0.5,0.2-1.1,0.3-1.6c1.3-5.1,2.5-10.5,4.3-15.5c0.8-2.5,1.8-5.1,2.8-7.4
			C104.3,12,105.5,9.7,107.1,8z M79.5,22.7c2.8-2.8,5.9-5.1,8.9-7.4c0.8-0.5,1.5-1,2.3-1.5l2.5-1.5l2.5-1.3c0.8-0.3,1.8-0.5,2.5-1
			c1.1-0.4,2.2-0.7,3.3-1.1c-0.7,1.3-1.4,2.6-2,3.9c-1,2.5-2,5.4-2.8,7.9c-1.5,5.4-2.8,10.7-3.8,16.1c-0.1,0.8-0.2,1.5-0.4,2.3
			l-25.5-0.6C70.8,32.8,74.8,27.5,79.5,22.7z M70.4,19.5l-0.5,0.7l-1.3,1.3c-0.8,0.8-1.3,1.8-2,2.5l-2,2.5c-2.5,3.6-4.8,7.1-6.9,11
			c-0.1,0.2-0.2,0.5-0.4,0.7L44.9,38C52.5,30.7,61.1,24.4,70.4,19.5z M17.9,79.6l1-3.6c0.5-1,1-2.3,1.5-3.3c1-2.3,2.3-4.3,3.3-6.6
			l1.8-3.3l1-1.8l1-1.5c0.8-1,1.3-2,2-3.1l2-3.1c2.6-3.7,5.5-7.2,8.5-10.5l15-0.4c-2.9,6.1-5.4,12.4-7.4,18.8
			c-2,6.2-3.5,12.6-4.7,19.2l-25.2-0.6C17.8,79.7,17.8,79.6,17.9,79.6z M11,108.1c0.3-1,0.3-2.3,0.5-3.6c0.3-1,0.3-2.3,0.5-3.6
			c0.5-2.5,1-5.1,1.5-7.4c0.5-2.3,1-4.8,1.8-7.1c0.1-0.6,0.3-1.1,0.5-1.7l26.6-0.7c-0.1,0.6-0.2,1.3-0.3,1.9
			c-1,8.4-1.5,16.8-1.5,25.2c0,4,0.1,8.1,0.4,12.2l-30.3-1.3C10.5,117.5,10.6,112.8,11,108.1z M18.1,159.1c-0.3-1.3-0.8-2.3-1.3-3.6
			l-1.3-3.6c-1.3-4.6-2.5-9.4-3.3-14.3c-0.7-3.5-1.1-7.1-1.4-10.7l30.2-1.4c0.8,11.8,2.6,23.7,5.1,35.3c0.4,1.6,0.8,3.3,1.2,4.9
			l-26.8-0.7C19.6,163.1,18.8,161.1,18.1,159.1z M52.2,206.5l-2.8-2.3l-2.8-2.5c-1-0.8-2-1.8-2.8-2.5c-0.8-0.8-1.8-1.5-2.5-2.5
			c-1.5-1.8-3.3-3.6-4.8-5.6c-1.5-1.8-3.1-3.8-4.6-5.9c-0.8-1-1.3-2-2-3.1l-1-1.5c-0.3-0.5-0.8-1-1-1.5l-2-3.1l-1.8-3.3
			c-0.3-0.5-0.5-1-0.8-1.5l-0.4-1l25.4-0.7c1.4,5.3,3,10.6,4.8,15.7l1,3.1l1.3,2.8c0.8,2,1.8,3.8,2.5,5.9c0.5,1,1,1.8,1.5,2.8
			l0.8,1.5l0.8,1.3l1.5,2.8c0.3,0.6,0.7,1.2,1.1,1.8L52.2,206.5z M58.4,211.2l7.7-0.3c2.4,3.4,5.2,6.7,8.3,9.7
			C68.9,217.9,63.5,214.7,58.4,211.2z M86.4,221.6c-3.3-2.3-6.4-5.1-8.9-7.9c-0.9-1-1.8-2.1-2.7-3.2l20.7-0.8c0.6,2.5,1.3,4.9,2,7.3
			c1,3.6,2.5,7.1,4.3,10.7c0.4,0.6,0.7,1.2,1.1,1.8C96.9,228,91.4,225.2,86.4,221.6z"/>
		<path class="st1" d="M206,99.7c0,1,0.8,2,2,2s2-1,2-2V57.7l-0.5-0.5c-2.5-3.6-3.6-6.6-2.8-9.4c0.5-1.5,1.3-3.1,2.8-4.1
			c0.8-0.5,1.5-1,2.3-1.3h39c0.5,0.3,1.3,0.5,2.3,1.3c1.5,1.3,2.3,2.5,2.8,4.1c0.5,2.8-0.3,5.9-3.1,9.4l-0.5,0.5v37.2c0,1,1,2,2,2
			c1,0,2-0.8,2-2V58.9c3.3-4.3,4.3-8.7,3.3-12.5c-0.5-1.5-1.1-2.9-2.1-4.1h23.2c0.3,0.3,1.3,0.5,2.3,1.3c1.5,1.3,2.3,2.5,2.8,4.1
			c0.5,2.8-0.3,5.9-3.1,9.4l-0.5,0.5v21.7c0,1,0.8,2,2,2c1,0,2-1,2-2V59.2c3.3-4.3,4.3-8.7,3.3-12.5c-0.8-2.5-2-4.6-4.6-6.4
			c-1.8-1-2.8-1.8-3.1-1.8l-0.8-0.3h-29.3l-0.8-0.3h-40.3l-0.5,0.3c-1,0.5-2.3,1.3-3.3,2c-2.3,1.5-3.6,3.6-4.3,6.1
			c-1.3,3.8,0,8.2,3.1,12.5V99.7z"/>
		<path class="st1" d="M339.5,188.4c-0.3-1-1.5-1.8-2.5-1.5c-1,0.3-1.8,1.5-1.5,2.5c0,0,0.3,1.3,0.5,3.1c0.3,2.3,0.3,4.6,0,6.6
			c-0.8,5.1-7.4,11.7-10.7,14.5h-25.1c3.6-3.4,8.6-9.2,9.3-14.5c0.3-2.3,0.3-4.8,0-7.6c-0.5-2-0.8-3.3-0.8-3.3
			c-0.3-1-1.5-1.8-2.5-1.5c-1,0.3-1.8,1.5-1.5,2.5c0,0,0.3,1.3,0.5,3.1c0.3,2.3,0.3,4.6,0,6.6c-0.8,5.1-7.4,11.7-10.7,14.5
			l-127.7-0.3c-5.6-3.1-8.9-7.9-9.9-14.3c-0.3-2-0.3-4.3,0-6.4c0.5-2,7.6-13.8,14.5-24c0.8-0.8,0.5-2-0.5-2.8
			c-0.8-0.8-2-0.5-2.8,0.5c-4.3,6.9-14.5,22.9-15,25.7s-0.3,5.1,0,7.6c1,7.9,5.4,13.8,12.7,17.6l0.3,0.3l117.8,0.2
			c0.1,0,0.1,0,0.2,0h11.5h0.8h30.6l0.8-0.8c1.3-1,11.7-9.7,12.7-17.6c0.3-2.3,0.3-4.8,0-7.6C339.8,189.7,339.5,188.4,339.5,188.4z"
			/>
	</g>
</g>
</svg>
