<svg id="圖層_1" data-name="圖層 1" xmlns="http://www.w3.org/2000/svg" xmlns:xlink="http://www.w3.org/1999/xlink" viewBox="0 0 447.79 518.91"><defs><style>.cls-1{fill:#040404;}.cls-2{fill:#f2f91c;}.cls-3{fill:url(#未命名漸層_264);}</style><linearGradient id="未命名漸層_264" x1="581.68" y1="444.13" x2="582.15" y2="444.13" gradientUnits="userSpaceOnUse"><stop offset="0" stop-color="#fff"/><stop offset="0"/></linearGradient></defs><title>商標</title><path class="cls-1" d="M421,387a77.32,77.32,0,0,1-42.47,24.09,21.4,21.4,0,0,0-8.42,18.17C372.34,424.5,377,418.5,386,417.7a1.42,1.42,0,0,1,.25,2.83c-11,1-14.36,10.93-15.14,14.15a21.15,21.15,0,0,0,2.34,5c.27.42.55.83.85,1.23,1.78-5.12,6.36-13.88,17-14.83a1.41,1.41,0,0,1,1.53,1.29,1.42,1.42,0,0,1-1.28,1.54c-10.35.92-14,10.56-15.13,14.49a21.21,21.21,0,0,0,5.93,4.12c.89-3.25,3.93-10.9,13.06-12.2a1.42,1.42,0,0,1,.4,2.82c-7.93,1.13-10.25,8-10.83,10.39a21.33,21.33,0,0,0,6.25,1,21,21,0,0,0,11.43-3.39c28.21-18.28,47.08-47.32,53.11-81.76a134.19,134.19,0,0,0,1.9-17.82Z" transform="translate(-73.67 -174.44)"/><path class="cls-1" d="M383.94,313.94l3.9-1.82c1.28-.61,2.53-1.17,3.74-1.69l12.25-5.13c-.94-1.13-1.9-2.24-2.92-3.31s-2.2-2.25-3.4-3.35a68.14,68.14,0,0,0-7.84-6.22,2,2,0,0,1-.1.32l-3.35,13.37c-.36,1.29-.73,2.58-1.12,3.89s-.79,2.6-1.21,3.89Z" transform="translate(-73.67 -174.44)"/><path class="cls-1" d="M329.42,451.15a109.36,109.36,0,0,1-27.9,3.6,111,111,0,0,1-98.86-60.58c-28.13-54.8-6.85-122.45,47.44-150.91a5.68,5.68,0,1,1,5.41,10c-48.92,25.51-68.13,86.38-42.83,135.7a100.35,100.35,0,0,0,88,54.42q5.35.4,11,.4a174.37,174.37,0,0,0,23-1.58,20.94,20.94,0,0,0,12.87-6.77,10.55,10.55,0,0,0-2.23-2.29c-2.78-2.12-8.14-4.23-17-.57a1.4,1.4,0,0,1-1.84-.78,1.42,1.42,0,0,1,.77-1.85c11.08-4.57,17.65-1,20.76,1.83a14.08,14.08,0,0,1,1.35,1.4A20.18,20.18,0,0,0,351.1,430a20.47,20.47,0,0,0,1.31-3.69,13.25,13.25,0,0,0-6.32-5.29c-4.78-2.06-10.47-1.92-16,.41a1.41,1.41,0,0,1-1.84-.77,1.42,1.42,0,0,1,.76-1.86c6.27-2.62,12.75-2.76,18.23-.39a17.33,17.33,0,0,1,5.83,4,20.35,20.35,0,0,0,0-3.4c0-.27-.05-.53-.09-.79-.08-.66-.2-1.31-.34-1.94a13,13,0,0,0-6.46-5.55c-.19-.09-.39-.16-.59-.24h0l-.1-.13a74.75,74.75,0,0,1-32-16.77c-.57-.51-1.12-1-1.66-1.52s-1-1-1.55-1.5a71.49,71.49,0,0,1-5.08-5.57c-24.32-29.41-23.06-73.22,2.93-101.9l48.63-53.66a8.25,8.25,0,0,1,8.47-2.41,8.34,8.34,0,0,1,5.9,6.6l7.6,42.61a75.57,75.57,0,0,1,25.13,15.44c1.36,1.25,2.66,2.53,3.86,3.81a76.14,76.14,0,0,1,13.66,20l34.59,3.06a140.17,140.17,0,0,0-11.53-36.8l0,0s0,0,0,0q-2.91-7.35-6.59-14.53C395.3,184.32,290.78,154.81,211,206.49c-63.75,41.3-89.41,123.07-60.86,193.82C180.68,476,260,513.73,333.73,496q4.92-1.18,9.8-2.7h0a22.67,22.67,0,0,0,9.27-30.25A22.37,22.37,0,0,0,329.42,451.15Z" transform="translate(-73.67 -174.44)"/><path class="cls-1" d="M415,324.41l-1.1-2.58a67.36,67.36,0,0,0-6.44-11.69L382.78,320l-10.39,12a.78.78,0,0,1-.41.26.94.94,0,0,1-.59-.08,4,4,0,0,1-.84-.44c-.34-.24-.73-.52-1.16-.85l-1-1a3.72,3.72,0,0,1-.58-.75.89.89,0,0,1-.17-.54.84.84,0,0,1,.2-.44l10.39-12,6.14-26.43c.05-.2.1-.37.15-.53a65.82,65.82,0,0,0-11.37-5l-2.64-.87-8.24-46.16-47.31,52.21c-22.87,25.24-24,63.75-2.65,89.58a63.28,63.28,0,0,0,4.44,4.88l1.39,1.34c.5.47,1,.91,1.47,1.34,27.24,24.16,69.65,21.5,94.51-5.93l47.26-52.16Zm-68,42.72-5.86.22a3.42,3.42,0,0,1-3.52-3.3l-.21-5.9a3.42,3.42,0,0,1,3.27-3.55h0a3.08,3.08,0,0,1,2.43.92c.53.65.31,1.22,1.08,2.38a7.71,7.71,0,0,0,1.07,1.23,7.27,7.27,0,0,0,1.49,1.16c1.25.72,1.71.36,2.43.92a3.21,3.21,0,0,1,1.09,2.38A3.43,3.43,0,0,1,347,367.13Z" transform="translate(-73.67 -174.44)"/><path class="cls-2" d="M352.24,324.69a3.19,3.19,0,0,0-.52-4.09L348,317.2l-9.28-8.4-3.75-3.4a3.1,3.1,0,0,0-4.05-.11,15.47,15.47,0,0,0-5.33,9.73,11.7,11.7,0,0,0,.64,6.28c4.54,11.43,17.83,12.86,24.75,5.09A15,15,0,0,0,352.24,324.69Z" transform="translate(-73.67 -174.44)"/><path class="cls-1" d="M339.43,324.66a4.87,4.87,0,0,0,2.18-.11A8.25,8.25,0,0,0,348,317.2l-9.28-8.4a7.85,7.85,0,0,0-4.42,2.49C330.32,315.72,332.22,323.37,339.43,324.66Z" transform="translate(-73.67 -174.44)"/><path class="cls-2" d="M400.05,368a3.18,3.18,0,0,0-.52-4.09l-3.75-3.4-9.28-8.4-3.76-3.39a3.1,3.1,0,0,0-4.05-.12,15.54,15.54,0,0,0-5.33,9.73,11.81,11.81,0,0,0,.65,6.28c4.53,11.44,17.82,12.86,24.74,5.09A13,13,0,0,0,400.05,368Z" transform="translate(-73.67 -174.44)"/><path class="cls-1" d="M387.25,367.93a4.82,4.82,0,0,0,2.17-.11,8.27,8.27,0,0,0,6.36-7.35l-9.28-8.4a7.78,7.78,0,0,0-4.42,2.5C378.14,359,380,366.64,387.25,367.93Z" transform="translate(-73.67 -174.44)"/><path class="cls-3" d="M114.52,386a180.77,180.77,0,0,1-24.86-9.18l-12.49,3q-2.15-10.32-3.5-21.24l12.68-1.79a248.64,248.64,0,0,1,20.18-20.68q.48,10.09,1.74,19.63Q100.86,363.44,94,372a181.68,181.68,0,0,0,18.77,7.31Q113.57,382.69,114.52,386Z" transform="translate(-73.67 -174.44)"/><path class="cls-3" d="M129.68,423.3l-3.05,1.76a182.53,182.53,0,0,1-8.7-18.44l-9.67,4.3q3.46,8.52,7.59,16.45l-3.08,1.71q-4.18-8.07-7.72-16.74L92.38,418a209.66,209.66,0,0,0,11.84,24.47l-3,1.81a216.7,216.7,0,0,1-18.66-43.57l33-11.33A184.34,184.34,0,0,0,129.68,423.3Z" transform="translate(-73.67 -174.44)"/><path class="cls-3" d="M156.86,460.53,131.4,484.81q-4.73-4.92-9.17-10.22a210.53,210.53,0,0,1,3-33.5L106.7,453.4c-1.11-1.75-2.21-3.52-3.28-5.31l29.77-18.63q2.56,4.29,5.33,8.38a198.43,198.43,0,0,0-3,35.1l17.83-16.13Q155.1,458.7,156.86,460.53Z" transform="translate(-73.67 -174.44)"/><path class="cls-3" d="M177.4,504.36c1.76,1.58,3.56,3.12,5.38,4.63A20.74,20.74,0,0,1,181.7,511c-1.8,2.88-5,4.18-9.71,3.64s-10.06-2.87-15.82-7.18c-14.48-11-16.54-22.06-8.24-30.17,3.93-4,8.81-5.44,14.54-4.91s11.23,2.94,16.93,7.15c8.87,6.49,11.75,12.2,7.85,18.43-2.27-.6-4.55-1.24-6.81-1.93.64-.8,1.13-1.43,1.45-1.9,2.92-4.29,1.78-8-3.16-11.61-5.18-3.8-11.2-1.71-18.34,6.69-6.11,7.18-6,13.56.87,18.51a13.81,13.81,0,0,0,8.48,2.9,7.24,7.24,0,0,0,6.22-3.17A16.15,16.15,0,0,0,177.4,504.36Z" transform="translate(-73.67 -174.44)"/><path class="cls-3" d="M204.22,515.13l-7.68,15.6q-7.95-3.63-15.6-7.88l17.83-30.15q6.47,3.6,13.2,6.67L205.76,512q5.9,2.68,11.94,5,2.69-6.48,5.39-13,6.9,2.65,14,4.78L226.23,541.9q-8.37-2.52-16.54-5.65l6.66-16Q210.2,517.88,204.22,515.13Z" transform="translate(-73.67 -174.44)"/><path class="cls-3" d="M259,514.09q-3.42,17-6.86,34c-5.74-1-11.45-2.3-17.09-3.76q4.74-16.74,9.49-33.46Q251.69,512.76,259,514.09Z" transform="translate(-73.67 -174.44)"/><path class="cls-3" d="M289.51,552.05q.54-17.32,1.1-34.64a210.24,210.24,0,0,0,22.73-.57c11.61-1,17.87.62,19,6.26.73,3.94-2.51,7.2-10,9.21,9.3.08,14.49,2.14,15.47,7.06,1.22,6-4.83,10.44-18.38,11.75A248,248,0,0,1,289.51,552.05Zm16.63-19.67c1.64-.07,3.29-.15,4.93-.26,4.56-.3,6.6-2.65,6.15-6.85-.42-3.9-2.87-5.6-7.39-5.31-1.41.09-2.83.16-4.25.22Q305.87,526.29,306.14,532.38Zm.77,16.69c1.65-.07,3.29-.15,4.93-.25,6.48-.42,9.46-3,9-7.21-.57-4.91-4-7-10.18-6.58-1.44.08-2.89.16-4.34.22Q306.6,542.15,306.91,549.07Z" transform="translate(-73.67 -174.44)"/><path class="cls-3" d="M352.3,510q5.07,16.65,10.13,33.29-8.43,2.34-17,4.07-3.75-17-7.51-33.92Q345.18,512,352.3,510Z" transform="translate(-73.67 -174.44)"/><path class="cls-3" d="M379.18,499.7c13.35-6,22.75-5.07,29.37,5.16,6.52,10,2.26,20.22-14.23,27.64-16.6,7.18-27.32,3.51-31-8.06C359.64,513.18,365.26,505.77,379.18,499.7Zm.82,2.68c-2.57,1.14-3.9,2.82-4,5.13s1,6.2,3.38,11.68,4.46,9,6.37,10.48,4.38,1.63,7.37.31,4.51-3.21,4.57-5.58-1.31-6.19-4.08-11.49-5.09-8.63-7-10.09S382.58,501.25,380,502.38Z" transform="translate(-73.67 -174.44)"/><path class="cls-3" d="M431.54,465.49,434,468q-4.67,4.49-9.62,8.6l20.54,24q-7.21,6-14.88,11.26l-18.48-25.6q-5.3,3.65-10.83,6.91l-1.86-3A177.68,177.68,0,0,0,431.54,465.49Z" transform="translate(-73.67 -174.44)"/><path class="cls-3" d="M455.57,436.77l2.9,2a175,175,0,0,1-11.62,15.51l8.13,6.87q5.46-6.51,10.39-13.62c1,.68,1.92,1.36,2.87,2q-5,7.23-10.57,13.86l10.64,9a199.63,199.63,0,0,0,15.36-20.92l2.94,1.95a203.16,203.16,0,0,1-27.72,34.45l-25-24.77A171.57,171.57,0,0,0,455.57,436.77Z" transform="translate(-73.67 -174.44)"/><path class="cls-3" d="M494,406.8q1.88-3.51,3.65-7.16a16.38,16.38,0,0,1,2.23.59c3.18,1.14,5.05,4.31,5.34,9.55s-1.09,11.65-4.37,18.79c-8.45,17.95-19,22.19-28.5,15.66-4.63-3.1-7-7.68-7.5-13.64s.92-12.19,4.12-19.27c4.91-11,10.08-15.94,17-13.42q-.29,4-.71,7.92c-.91-.48-1.63-.82-2.15-1-4.79-2-8.31.32-11,6.47-2.87,6.45.27,12.13,9.88,17.48,8.22,4.57,14.54,2.92,18.27-5.59a16.8,16.8,0,0,0,1.41-9.82c-.58-3-2-4.94-4.25-5.83A14.64,14.64,0,0,0,494,406.8Z" transform="translate(-73.67 -174.44)"/><path class="cls-3" d="M499.82,373.6l16.85,3.86q-2.07,10.38-4.91,20.14l-33.13-10.86q2.4-8.25,4.16-17l13.63,3.12q1.53-7.68,2.57-15.74L485.19,355q1.19-9.21,1.65-18.93l34.62,1.63q-.56,11.5-2,22.38l-17.07-2.53Q501.38,365.79,499.82,373.6Z" transform="translate(-73.67 -174.44)"/><path d="M114.52,386a180.77,180.77,0,0,1-24.86-9.18l-12.49,3q-2.15-10.32-3.5-21.24l12.68-1.79a248.64,248.64,0,0,1,20.18-20.68q.48,10.09,1.74,19.63Q100.86,363.44,94,372a181.68,181.68,0,0,0,18.77,7.31Q113.57,382.69,114.52,386Z" transform="translate(-73.67 -174.44)"/><path d="M129.68,423.3l-3.05,1.76a182.53,182.53,0,0,1-8.7-18.44l-9.67,4.3q3.46,8.52,7.59,16.45l-3.08,1.71q-4.18-8.07-7.72-16.74L92.38,418a209.66,209.66,0,0,0,11.84,24.47l-3,1.81a216.7,216.7,0,0,1-18.66-43.57l33-11.33A184.34,184.34,0,0,0,129.68,423.3Z" transform="translate(-73.67 -174.44)"/><path d="M156.86,460.53,131.4,484.81q-4.73-4.92-9.17-10.22a210.53,210.53,0,0,1,3-33.5L106.7,453.4c-1.11-1.75-2.21-3.52-3.28-5.31l29.77-18.63q2.56,4.29,5.33,8.38a198.43,198.43,0,0,0-3,35.1l17.83-16.13Q155.1,458.7,156.86,460.53Z" transform="translate(-73.67 -174.44)"/><path d="M177.4,504.36c1.76,1.58,3.56,3.12,5.38,4.63A20.74,20.74,0,0,1,181.7,511c-1.8,2.88-5,4.18-9.71,3.64s-10.06-2.87-15.82-7.18c-14.48-11-16.54-22.06-8.24-30.17,3.93-4,8.81-5.44,14.54-4.91s11.23,2.94,16.93,7.15c8.87,6.49,11.75,12.2,7.85,18.43-2.27-.6-4.55-1.24-6.81-1.93.64-.8,1.13-1.43,1.45-1.9,2.92-4.29,1.78-8-3.16-11.61-5.18-3.8-11.2-1.71-18.34,6.69-6.11,7.18-6,13.56.87,18.51a13.81,13.81,0,0,0,8.48,2.9,7.24,7.24,0,0,0,6.22-3.17A16.15,16.15,0,0,0,177.4,504.36Z" transform="translate(-73.67 -174.44)"/><path d="M204.22,515.13l-7.68,15.6q-7.95-3.63-15.6-7.88l17.83-30.15q6.47,3.6,13.2,6.67L205.76,512q5.9,2.68,11.94,5,2.69-6.48,5.39-13,6.9,2.65,14,4.78L226.23,541.9q-8.37-2.52-16.54-5.65l6.66-16Q210.2,517.88,204.22,515.13Z" transform="translate(-73.67 -174.44)"/><path d="M259,514.09q-3.42,17-6.86,34c-5.74-1-11.45-2.3-17.09-3.76q4.74-16.74,9.49-33.46Q251.69,512.76,259,514.09Z" transform="translate(-73.67 -174.44)"/><path d="M289.51,552.05q.54-17.32,1.1-34.64a210.24,210.24,0,0,0,22.73-.57c11.61-1,17.87.62,19,6.26.73,3.94-2.51,7.2-10,9.21,9.3.08,14.49,2.14,15.47,7.06,1.22,6-4.83,10.44-18.38,11.75A248,248,0,0,1,289.51,552.05Zm16.63-19.67c1.64-.07,3.29-.15,4.93-.26,4.56-.3,6.6-2.65,6.15-6.85-.42-3.9-2.87-5.6-7.39-5.31-1.41.09-2.83.16-4.25.22Q305.87,526.29,306.14,532.38Zm.77,16.69c1.65-.07,3.29-.15,4.93-.25,6.48-.42,9.46-3,9-7.21-.57-4.91-4-7-10.18-6.58-1.44.08-2.89.16-4.34.22Q306.6,542.15,306.91,549.07Z" transform="translate(-73.67 -174.44)"/><path d="M352.3,510q5.07,16.65,10.13,33.29-8.43,2.34-17,4.07-3.75-17-7.51-33.92Q345.18,512,352.3,510Z" transform="translate(-73.67 -174.44)"/><path d="M379.18,499.7c13.35-6,22.75-5.07,29.37,5.16,6.52,10,2.26,20.22-14.23,27.64-16.6,7.18-27.32,3.51-31-8.06C359.64,513.18,365.26,505.77,379.18,499.7Zm.82,2.68c-2.57,1.14-3.9,2.82-4,5.13s1,6.2,3.38,11.68,4.46,9,6.37,10.48,4.38,1.63,7.37.31,4.51-3.21,4.57-5.58-1.31-6.19-4.08-11.49-5.09-8.63-7-10.09S382.58,501.25,380,502.38Z" transform="translate(-73.67 -174.44)"/><path d="M431.54,465.49,434,468q-4.67,4.49-9.62,8.6l20.54,24q-7.21,6-14.88,11.26l-18.48-25.6q-5.3,3.65-10.83,6.91l-1.86-3A177.68,177.68,0,0,0,431.54,465.49Z" transform="translate(-73.67 -174.44)"/><path d="M455.57,436.77l2.9,2a175,175,0,0,1-11.62,15.51l8.13,6.87q5.46-6.51,10.39-13.62c1,.68,1.92,1.36,2.87,2q-5,7.23-10.57,13.86l10.64,9a199.63,199.63,0,0,0,15.36-20.92l2.94,1.95a203.16,203.16,0,0,1-27.72,34.45l-25-24.77A171.57,171.57,0,0,0,455.57,436.77Z" transform="translate(-73.67 -174.44)"/><path d="M494,406.8q1.88-3.51,3.65-7.16a16.38,16.38,0,0,1,2.23.59c3.18,1.14,5.05,4.31,5.34,9.55s-1.09,11.65-4.37,18.79c-8.45,17.95-19,22.19-28.5,15.66-4.63-3.1-7-7.68-7.5-13.64s.92-12.19,4.12-19.27c4.91-11,10.08-15.94,17-13.42q-.29,4-.71,7.92c-.91-.48-1.63-.82-2.15-1-4.79-2-8.31.32-11,6.47-2.87,6.45.27,12.13,9.88,17.48,8.22,4.57,14.54,2.92,18.27-5.59a16.8,16.8,0,0,0,1.41-9.82c-.58-3-2-4.94-4.25-5.83A14.64,14.64,0,0,0,494,406.8Z" transform="translate(-73.67 -174.44)"/><path d="M499.82,373.6l16.85,3.86q-2.07,10.38-4.91,20.14l-33.13-10.86q2.4-8.25,4.16-17l13.63,3.12q1.53-7.68,2.57-15.74L485.19,355q1.19-9.21,1.65-18.93l34.62,1.63q-.56,11.5-2,22.38l-17.07-2.53Q501.38,365.79,499.82,373.6Z" transform="translate(-73.67 -174.44)"/><text x="-73.67" y="-174.44"/><text x="-73.67" y="-174.44"/></svg>