<?xml version="1.0" encoding="utf-8"?>
<!-- Generator: Adobe Illustrator 24.0.1, SVG Export Plug-In . SVG Version: 6.00 Build 0)  -->
<svg version="1.1" xmlns="http://www.w3.org/2000/svg" xmlns:xlink="http://www.w3.org/1999/xlink" x="0px" y="0px"
	 viewBox="0 0 595.28 841.89" style="enable-background:new 0 0 595.28 841.89;" xml:space="preserve">
<style type="text/css">
	.st0{fill:#040404;}
	.st1{fill:#F2F91C;}
	.st2{fill:none;}
	.st3{display:none;}
	.st4{display:inline;}
	.st5{fill:#FFFFFF;}
</style>
<g id="圖層_1">
	<g>
		<path class="st0" d="M326.23,351.2c-3.04,3.49-7,5.81-11.35,6.7c-1.55,1.22-2.34,3.14-2.25,5.06c0.61-1.32,1.84-2.99,4.25-3.22
			c0.21-0.02,0.39,0.14,0.41,0.36c0.02,0.22-0.14,0.41-0.34,0.43c-2.95,0.27-3.84,3.04-4.05,3.94c0.15,0.48,0.35,0.95,0.63,1.39
			c0.07,0.12,0.15,0.23,0.23,0.34c0.48-1.43,1.7-3.86,4.55-4.13c0.21-0.02,0.39,0.14,0.41,0.36c0.02,0.22-0.13,0.41-0.34,0.43
			c-2.77,0.26-3.75,2.94-4.04,4.03c0.47,0.48,1,0.87,1.58,1.15c0.24-0.9,1.05-3.03,3.49-3.39c0.2-0.03,0.4,0.12,0.43,0.34
			c0.03,0.22-0.11,0.42-0.32,0.45c-2.12,0.31-2.74,2.21-2.89,2.89c0.54,0.17,1.1,0.26,1.67,0.26c1.05,0,2.11-0.3,3.05-0.94
			c7.54-5.09,12.58-13.17,14.2-22.76c0.28-1.65,0.44-3.3,0.51-4.96L326.23,351.2z"/>
		<path class="st0" d="M316.34,330.86c0.35-0.17,0.7-0.34,1.04-0.51c0.34-0.17,0.68-0.32,1-0.47l3.27-1.43
			c-0.25-0.31-0.51-0.62-0.78-0.92c-0.28-0.31-0.59-0.63-0.91-0.93c-0.66-0.64-1.36-1.21-2.1-1.73c-0.01,0.03-0.02,0.06-0.03,0.09
			l-0.89,3.72c-0.09,0.36-0.19,0.72-0.3,1.08c-0.1,0.36-0.21,0.72-0.32,1.08L316.34,330.86z"/>
		<path class="st0" d="M301.76,369.05c-2.44,0.67-4.95,1-7.46,1c-4.02,0-8.04-0.85-11.78-2.54c-6.29-2.84-11.49-7.92-14.64-14.32
			c-7.52-15.25-1.83-34.08,12.68-42c0.72-0.39,1.64-0.17,2.05,0.56c0.44,0.79,0.16,1.8-0.61,2.21
			c-13.08,7.1-18.21,24.04-11.45,37.77c4.62,9.37,13.83,15.05,23.52,15.15c0.95,0.08,1.93,0.11,2.93,0.11
			c1.97,0,4.03-0.15,6.16-0.44c1.38-0.19,2.57-0.88,3.44-1.88c-0.09-0.13-0.28-0.38-0.6-0.64c-0.74-0.59-2.17-1.18-4.55-0.16
			c-0.19,0.08-0.41-0.01-0.49-0.22c-0.08-0.2,0.02-0.43,0.21-0.52c2.96-1.27,4.72-0.28,5.55,0.51c0.15,0.14,0.27,0.28,0.36,0.39
			c0.18-0.28,0.34-0.57,0.48-0.87c0.15-0.33,0.26-0.67,0.35-1.03c-0.31-0.58-0.93-1.13-1.69-1.47c-1.28-0.57-2.8-0.53-4.29,0.11
			c-0.19,0.09-0.41-0.01-0.49-0.21c-0.08-0.2,0.01-0.43,0.2-0.52c1.68-0.73,3.41-0.77,4.87-0.11c0.62,0.28,1.15,0.67,1.56,1.12
			c0.02-0.31,0.02-0.63-0.01-0.95c-0.01-0.07-0.01-0.15-0.02-0.22c-0.02-0.18-0.05-0.36-0.09-0.54c-0.29-0.61-0.94-1.19-1.73-1.54
			c-0.05-0.02-0.1-0.05-0.16-0.07l0,0c-0.01-0.01-0.02-0.02-0.03-0.03c-3.14-0.8-6.06-2.38-8.54-4.67c-0.15-0.14-0.3-0.28-0.44-0.42
			c-0.14-0.13-0.28-0.27-0.41-0.42c-0.47-0.48-0.93-1-1.36-1.55c-6.5-8.19-6.16-20.38,0.78-28.36l13-14.93
			c0.58-0.66,1.44-0.92,2.27-0.67c0.82,0.25,1.43,0.95,1.58,1.84l2.03,11.86c2.48,0.96,4.74,2.4,6.72,4.3
			c0.36,0.35,0.71,0.71,1.03,1.06c1.5,1.65,2.72,3.52,3.65,5.57l9.25,0.85c-0.56-3.51-1.59-6.96-3.08-10.24l0.01-0.01
			c0,0,0.01-0.01,0-0.01c-0.52-1.36-1.1-2.71-1.76-4.05c-11.37-23.07-39.31-31.28-60.64-16.9c-17.04,11.49-23.9,34.25-16.27,53.95
			c8.17,21.07,29.37,31.57,49.08,26.64c0.88-0.22,1.75-0.47,2.62-0.75c0,0,0,0,0,0c2.87-1.62,3.98-5.37,2.48-8.42
			C306.8,369.91,304.24,368.64,301.76,369.05z"/>
		<path class="st0" d="M324.65,333.78l-0.29-0.72c-0.47-1.15-1.05-2.24-1.72-3.26l-6.6,2.75l-2.78,3.33
			c-0.03,0.04-0.07,0.06-0.11,0.07c-0.04,0.01-0.09,0-0.16-0.02c-0.12-0.05-0.2-0.1-0.23-0.12c-0.09-0.07-0.2-0.15-0.31-0.24
			c-0.08-0.07-0.17-0.16-0.28-0.27c0,0-0.08-0.08-0.16-0.21c-0.03-0.06-0.05-0.11-0.04-0.15c0-0.04,0.02-0.09,0.05-0.12l2.78-3.33
			l1.64-7.35c0.01-0.06,0.03-0.1,0.04-0.15c-0.97-0.56-1.98-1.02-3.04-1.38l-0.71-0.24l-2.2-12.85l-12.65,14.53
			c-6.11,7.02-6.42,17.74-0.71,24.93c0.38,0.48,0.78,0.94,1.19,1.36c0.12,0.13,0.25,0.25,0.37,0.37c0.13,0.13,0.26,0.25,0.39,0.37
			c7.28,6.72,18.62,5.98,25.26-1.65l12.63-14.52L324.65,333.78z M306.47,345.67l-1.57,0.06c-0.5,0.02-0.92-0.39-0.94-0.92
			l-0.06-1.64c-0.02-0.52,0.38-0.97,0.87-0.99l0,0c0.38,0.01,0.56,0.14,0.65,0.26c0.14,0.18,0.08,0.34,0.29,0.66
			c0.1,0.16,0.21,0.27,0.29,0.34c0.08,0.08,0.21,0.21,0.4,0.32c0.33,0.2,0.46,0.1,0.65,0.26c0.2,0.16,0.28,0.45,0.29,0.66
			C307.36,345.21,306.97,345.65,306.47,345.67z"/>
		<path class="st1" d="M307.87,333.85c0.23-0.36,0.17-0.85-0.14-1.14l-1-0.95l-2.48-2.34l-1-0.95c-0.3-0.29-0.77-0.3-1.08-0.03
			c-0.69,0.59-1.23,1.48-1.42,2.71c-0.09,0.59-0.04,1.19,0.17,1.75c1.21,3.18,4.76,3.58,6.61,1.42
			C307.65,334.18,307.76,334.02,307.87,333.85z"/>
		<path class="st0" d="M304.44,333.85c0.19,0.04,0.39,0.02,0.58-0.03c1.09-0.32,1.64-1.17,1.7-2.04l-2.48-2.34
			c-0.44,0.09-0.86,0.32-1.18,0.69C302.01,331.36,302.51,333.49,304.44,333.85z"/>
		<path class="st1" d="M320.65,345.9c0.23-0.36,0.17-0.85-0.14-1.14l-1-0.95l-2.48-2.34l-1-0.95c-0.3-0.29-0.77-0.3-1.08-0.03
			c-0.69,0.59-1.23,1.48-1.42,2.71c-0.09,0.59-0.04,1.19,0.17,1.75c1.21,3.18,4.76,3.58,6.61,1.42
			C320.43,346.22,320.54,346.06,320.65,345.9z"/>
		<path class="st0" d="M317.22,345.89c0.19,0.04,0.39,0.02,0.58-0.03c1.09-0.32,1.64-1.17,1.7-2.04l-2.48-2.34
			c-0.44,0.09-0.86,0.32-1.18,0.69C314.79,343.4,315.29,345.53,317.22,345.89z"/>
	</g>
	<polygon class="st2" points="205.84,693.35 231.39,693.35 231.39,693.35 205.84,693.35 	"/>
</g>
<g id="圖層_2" class="st3">
	<g class="st4">
		<g>
			<path class="st0" d="M314.34,445.42l55.88-61.18l-54.79-4.81l-1.3-3.02c-2.08-4.85-4.64-9.42-7.61-13.72l-29.2,11.58
				l-12.28,14.05c-0.14,0.16-0.3,0.26-0.49,0.31c-0.19,0.05-0.42,0.02-0.7-0.09c-0.51-0.21-0.89-0.44-1-0.52
				c-0.4-0.28-0.86-0.61-1.36-1c-0.35-0.31-0.76-0.69-1.22-1.13c0,0-0.36-0.33-0.69-0.87c-0.15-0.24-0.21-0.45-0.19-0.64
				c0.02-0.19,0.1-0.36,0.23-0.52l12.28-14.05l7.27-30.99c0.06-0.23,0.11-0.44,0.17-0.63c-4.27-2.34-8.75-4.31-13.44-5.83
				l-3.13-1.02l-9.74-54.14l-55.94,61.24c-27.03,29.6-28.38,74.77-3.14,105.07c1.68,2.02,3.45,3.95,5.25,5.72
				c0.54,0.53,1.08,1.05,1.65,1.57c0.59,0.56,1.16,1.07,1.73,1.57C234.8,480.72,284.94,477.6,314.34,445.42z"/>
			<path class="st0" d="M322.46,452.84c-13.44,14.71-30.96,24.49-50.22,28.25c-6.84,5.13-10.37,13.22-9.95,21.31
				c2.68-5.58,8.13-12.61,18.78-13.55c0.94-0.07,1.73,0.6,1.81,1.51c0.08,0.92-0.6,1.73-1.51,1.81
				c-13.06,1.16-16.97,12.82-17.9,16.6c0.65,2.02,1.57,3.98,2.77,5.85c0.32,0.5,0.66,0.98,1.01,1.45c2.1-6.01,7.52-16.28,20.14-17.4
				c0.94-0.08,1.73,0.6,1.81,1.51c0.08,0.92-0.6,1.73-1.51,1.81c-12.24,1.08-16.6,12.39-17.88,16.99c2.07,2.03,4.45,3.66,7,4.83
				c1.05-3.81,4.65-12.78,15.45-14.3c0.9-0.13,1.76,0.51,1.88,1.42c0.13,0.91-0.51,1.76-1.42,1.88c-9.37,1.32-12.11,9.33-12.8,12.18
				c2.39,0.73,4.88,1.12,7.39,1.12c4.63,0,9.32-1.29,13.51-3.98c33.36-21.44,55.66-55.5,62.8-95.9c1.22-6.94,1.96-13.92,2.24-20.9
				L322.46,452.84z"/>
			<path class="st0" d="M278.69,367.15c1.56-0.71,3.09-1.42,4.61-2.13c1.52-0.71,2.99-1.37,4.42-1.98l14.47-6.01
				c-1.11-1.32-2.25-2.63-3.44-3.88c-1.26-1.32-2.6-2.65-4.02-3.94c-2.93-2.68-6.03-5.1-9.27-7.29c-0.03,0.12-0.07,0.24-0.12,0.37
				l-3.96,15.68c-0.42,1.51-0.86,3.03-1.32,4.56c-0.46,1.53-0.94,3.05-1.44,4.57L278.69,367.15z"/>
			<path class="st0" d="M214.22,528.1c-10.79,2.82-21.89,4.21-32.98,4.21c-17.79,0-35.58-3.6-52.12-10.71
				c-27.82-11.96-50.82-33.39-64.76-60.34c-33.26-64.29-8.1-143.63,56.09-177.01c3.19-1.66,7.24-0.72,9.08,2.38
				c1.96,3.34,0.71,7.58-2.68,9.33C69,325.88,46.29,397.29,76.21,455.13c20.42,39.48,61.18,63.42,104.04,63.83
				c4.22,0.32,8.54,0.48,12.95,0.48c8.72,0,17.82-0.62,27.23-1.85c6.09-0.8,11.38-3.73,15.21-7.94c-0.38-0.54-1.23-1.62-2.64-2.69
				c-3.29-2.49-9.62-4.97-20.12-0.68c-0.85,0.35-1.83-0.06-2.18-0.91c-0.35-0.85,0.07-1.83,0.92-2.18
				c13.1-5.36,20.86-1.17,24.54,2.15c0.67,0.59,1.19,1.16,1.6,1.63c0.81-1.16,1.51-2.39,2.1-3.67c0.65-1.38,1.17-2.83,1.55-4.32
				c-1.36-2.45-4.12-4.77-7.48-6.21c-5.65-2.42-12.38-2.25-18.96,0.48c-0.85,0.36-1.83-0.05-2.18-0.9c-0.36-0.85,0.05-1.83,0.9-2.18
				c7.42-3.08,15.07-3.24,21.55-0.47c2.73,1.17,5.1,2.81,6.89,4.7c0.09-1.31,0.08-2.64-0.06-3.99c-0.03-0.31-0.06-0.62-0.1-0.93
				c-0.1-0.78-0.24-1.53-0.41-2.28c-1.29-2.57-4.15-5.01-7.64-6.51c-0.23-0.1-0.46-0.19-0.69-0.28l-0.01-0.01
				c-0.04-0.05-0.09-0.1-0.13-0.14c-13.89-3.37-26.82-10.02-37.79-19.68c-0.67-0.59-1.33-1.18-1.96-1.79
				c-0.6-0.56-1.22-1.15-1.83-1.75c-2.07-2.03-4.09-4.23-6.01-6.54c-28.75-34.5-27.26-85.89,3.47-119.53l57.49-62.94
				c2.55-2.79,6.39-3.87,10.03-2.82c3.63,1.05,6.3,4.02,6.97,7.74l8.99,49.98c10.99,4.03,20.97,10.11,29.72,18.1
				c1.61,1.47,3.14,2.97,4.56,4.47c6.62,6.94,12.04,14.83,16.15,23.48l40.9,3.59c-2.49-14.8-7.05-29.32-13.63-43.17l0.05-0.03
				c0.02-0.01,0.03-0.03,0.02-0.04c-2.29-5.75-4.88-11.44-7.78-17.05c-50.3-97.22-173.88-131.84-268.21-71.22
				C-1.16,289.56-31.51,385.47,2.25,468.46c36.12,88.81,129.9,133.04,217.08,112.26c3.88-0.93,7.74-1.98,11.58-3.17
				c0.01,0,0.01,0,0.01,0c12.7-6.84,17.6-22.61,10.95-35.47C236.49,531.69,225.18,526.37,214.22,528.1z"/>
		</g>
		<g>
			<path class="st5" d="M238.91,425.39c-0.03-0.89-0.38-2.1-1.28-2.79c-0.86-0.65-1.4-0.23-2.88-1.08
				c-0.82-0.47-1.41-1.03-1.76-1.36c-0.32-0.31-0.81-0.78-1.27-1.45c-0.91-1.36-0.65-2.03-1.28-2.79c-0.4-0.48-1.19-1.02-2.88-1.08
				h0c-2.21,0.08-3.95,1.95-3.87,4.16l0.25,6.93c0.08,2.21,1.95,3.95,4.16,3.87l6.93-0.25C237.25,429.47,238.99,427.6,238.91,425.39
				z"/>
		</g>
		<g>
			<g>
				<g>
					<path class="st1" d="M241.21,379.76c1.01-1.53,0.75-3.57-0.62-4.79l-4.44-3.98l-10.97-9.85l-4.44-3.99
						c-1.35-1.21-3.39-1.28-4.79-0.13c-3.06,2.5-5.42,6.22-6.3,11.41c-0.42,2.47-0.17,5.03,0.76,7.36
						c5.36,13.41,21.08,15.08,29.26,5.97C240.24,381.12,240.75,380.45,241.21,379.76z"/>
				</g>
				<g>
					<path class="st0" d="M226.07,379.73c0.85,0.15,1.74,0.1,2.57-0.14c4.81-1.37,7.23-4.94,7.51-8.61l-10.97-9.85
						c-1.95,0.36-3.8,1.34-5.23,2.92C215.3,369.24,217.54,378.21,226.07,379.73z"/>
				</g>
			</g>
			<g>
				<g>
					<path class="st1" d="M297.74,430.51c1.01-1.53,0.75-3.57-0.62-4.79l-4.44-3.98l-10.97-9.85l-4.44-3.99
						c-1.35-1.21-3.39-1.28-4.79-0.13c-3.06,2.5-5.42,6.22-6.3,11.41c-0.42,2.47-0.17,5.03,0.76,7.36
						c5.36,13.41,21.08,15.08,29.26,5.97C296.77,431.87,297.28,431.21,297.74,430.51z"/>
				</g>
				<g>
					<path class="st0" d="M282.6,430.49c0.85,0.15,1.74,0.1,2.57-0.14c4.81-1.37,7.23-4.94,7.51-8.61l-10.97-9.85
						c-1.95,0.36-3.8,1.34-5.23,2.92C271.83,419.99,274.07,428.97,282.6,430.49z"/>
				</g>
			</g>
		</g>
	</g>
</g>
</svg>
